<svg xmlns="http://www.w3.org/2000/svg" viewBox="0 0 762.45 102.61"><defs><style>.cls-1{fill:#b9e959;}.cls-2{fill:#1ad0c4;}.cls-3{fill:#fbca01;}.cls-4{fill:#fff;}</style></defs><title>Fichier 3</title><g id="Calque_2" data-name="Calque 2"><g id="logoV"><polygon id="Toit_2" data-name="Toit 2" class="cls-1" points="117.59 64.72 286.65 0 457.29 65.31 286.81 9.17 117.59 64.72"/><polygon id="Toit_1" data-name="Toit 1" class="cls-2" points="10.98 51.83 118.31 10.17 191.19 38.08 186.98 39.17 118.98 16.5 10.98 51.83"/><g id="by_Franck_Lablond" data-name="by Franck Lablond"><path class="cls-3" d="M557.49,84.81c0,.06,0,.09,0,.11l-.11.83v.4l-.41.64-.47,1-.17.28a1,1,0,0,0-.37-.2l-.28.12,0,.41-.28,0,.29.18.06.16-.94.79-.76.54a3.4,3.4,0,0,1-1.09.61,5.88,5.88,0,0,1-1.2.7,4.6,4.6,0,0,1-1.2.31,13.68,13.68,0,0,1-1.75.08,11.68,11.68,0,0,1-1.95-.12,7,7,0,0,1-1.57-.56l-.17.28-.56-.23-.32.16a1.79,1.79,0,0,0-.77-.32l-.09-.16h-.25l-.86.08c-.07,0-.18-.13-.32-.33l-.48-.08.07.24-.24.17a1.37,1.37,0,0,1-.45.24.48.48,0,0,1-.26-.08l-.1-.46v-.19l.35-.26,1-.45.39-.58.21-.33.07-2.54.06-.28-.15-.39.28-.87-.22.08,0-.6a5.43,5.43,0,0,1,.11-.94l.23-.1.05-.11-.2-.68.15-.47-.27-.66.13-1.09,0-.31h-.19l-.15-.45.08-.37-.12-.13,0-.2,0-.76,0-.68-.11-.39.09-.24,0-.18,0-.18a1.22,1.22,0,0,1-.14-.35,7.19,7.19,0,0,1-.06-.75l0-.39a.32.32,0,0,0,.21-.29l0-.19a1.44,1.44,0,0,1-.71-.31l-.45.06-.06-.14h-.11v-.19l.26-.25.73-.27.26-.25a.93.93,0,0,1,.64-.24l.47.05.56-.05.32.1,2.07-.08.19.19.26.08.12-.1.46-.11,1.07.11,1.09.08a2.25,2.25,0,0,1,1.21.38l.25-.18.47.1.31.08h.4l.35.08c.45.3.68.53.68.69a1.59,1.59,0,0,1-.27.83l-.13.32-.2,0c-.2,0-.3.09-.3.28l0,.47-.56.24-.45.44-1.24.68-.41.36v.14l.38.18.37.31.34.14.13-.11.82.27c0,.42.08.62.24.62a.63.63,0,0,0,.44-.21l.31,0a.71.71,0,0,1,.41.09.67.67,0,0,1,.23.3h.21l.18.19.21-.08,1.46.81v.29l.26.13q.6.28.6.57a1.14,1.14,0,0,1-.09.42c.2.23.35.35.45.35l.2-.08a2.14,2.14,0,0,1,.53,1.09c0,.07-.07.16-.21.28l.08.08,0,.27A2.2,2.2,0,0,1,557.49,84.81Zm-2.43.91,0-.15-.21-1.17c-.08-.59-.15-1-.18-1.13a1,1,0,0,0-.28-.48,1.81,1.81,0,0,1-.34-.47l-.15-.38-.15-.22-.47-.14-.26,0a2.88,2.88,0,0,0-.69-.6l-1.91-.66-.36-.24-.6-.08-.45-.52a.56.56,0,0,0-.45-.2c-.11,0-.19.07-.24.23l-.28-.11,0,.19-.24,0-.27-.13-.63-.15h-.58l-.58-.13-.86-.08a1.67,1.67,0,0,0-.68.24l.15,1.12-.35.42,0,.41a7.48,7.48,0,0,0,.11.82,1.81,1.81,0,0,0,.19.38l0,.74,0,.86,0,.32a1.44,1.44,0,0,1-.18.75,1.3,1.3,0,0,0,.18.68l-.43.41,0,.55.37.16,0,.27.09.93.25.82c-.08.31-.41.5-1,.55l-.08.2a1.36,1.36,0,0,1,.46.15,1.43,1.43,0,0,1,.33.28l.34.06.95.19,1,.08,1.33.31,1.24-.07,1.66,0a1,1,0,0,0,.43-.11l.41-.16.44-.19.46-.44.71-.46a2,2,0,0,0,.6-.85l.38-.88.26-.39.09-.55Zm-4.89-11a4.34,4.34,0,0,0-1.83-.71l-.38,0-.3-.18-.3,0-1.31-.14-.58.09a4.53,4.53,0,0,0-1.48.29l0,.25.09,1-.39.66,0,.11,0,.1v.19l.5.15.06.29c0,.41,0,.66,0,.75a1.35,1.35,0,0,1-.15.58,2.26,2.26,0,0,0,.56-.21l.15-.08,1,0,.09,0,.1,0,.16,0,.12,0,.33-.1a.77.77,0,0,0,.38.18.23.23,0,0,0,.2-.08l.45-.44,1.28-.39a1.93,1.93,0,0,0,.6-.44,2,2,0,0,0,.46-.63A2.76,2.76,0,0,0,550.17,74.73Z"/><path class="cls-3" d="M571.31,88.24l-.45,1.25v.06l0,.2.27.32-.12.72.06,1-.13.33,0,1.42-.19.47-.13.65-.21.45,0,.68L570.05,97l-.09.31-.37.24-1,1.29-.58.9a1.64,1.64,0,0,1-.65.68l-.34.2-.32.35-.39.25-.24.22-.57.16-.82.39-.8.3-1.16.35-1.22-.13-.66-.08a1.79,1.79,0,0,1-.78-.23l-.88-.57-.43-.11-.36-.5-.67-.42a1,1,0,0,1-.25-.75,1.77,1.77,0,0,1,.38-1.07.67.67,0,0,1,.48-.19l.17.39.13.37.51.72.49.82c.18.19.32.28.41.28h0l.18,0,1.09.46.9.07a.51.51,0,0,0,.33.13.7.7,0,0,0,.36-.17l.3,0a4.1,4.1,0,0,0,1.54-.47,4.37,4.37,0,0,0,1.08-.68l1-1,.6-.39a1.9,1.9,0,0,0,.56-1l.32-1.09.49-.76-.08-.58.23-1.07,0-1.1a2.86,2.86,0,0,1,.24-1.12l.21-.73-.15-.63-.13-1.86,0-.31v-.13l.22-.71-.15-.2-.37.2-.45.27-.37.41-1.26.82-.64.62-1,.75a3.31,3.31,0,0,1-.63.38l-.85.14-.47.19a1.41,1.41,0,0,1-.43.08,3.94,3.94,0,0,1-1.34-.33,3.1,3.1,0,0,1-1.15-.68,1.88,1.88,0,0,1-.5-1.34l0-.28c.18-.13.28-.24.28-.35s0,0,0-.05l0,0-.26-.39,0-.39.07-.34.51-1.21-.11-.47V85.6a4.39,4.39,0,0,1,.11-.65l.24-1c.05-.23.1-.46.13-.67l0-1,.25-1a1,1,0,0,0-.19-.47l-.37-.05,0-.23.48-.58.3-.1.45-.14,1.29-.76h.08a.37.37,0,0,1,.31.16.7.7,0,0,1,.12.42v.08l-.41,1-.17,1-.32,1.53-.09.91q-.06.21-.21.24l-.39.11a.3.3,0,0,0-.21.31c0,.21.18.32.53.32l-.38,2.77-.09.8.07.21.19.24.38.65L563,90l.35.42.17.08h.11l.41-.31,1.26-.43.52-.39.9-.65.86-.86.55-.35.24-.14.47-1.29.09-.05,0-.24.28-.34-.11-.73.11-.2-.08-.58.1-.29L569,82.43,569,80.81l-.38-.79a.72.72,0,0,1,0-.17v-.21l.54-.19.41-.39.75-.11.3-.08c.25.18.37.33.37.46v.07l-.07.48,0,1-.11.39v.35l-.17.6,0,.2c.13.32.22.56.29.72a1,1,0,0,1,.1.37v.35l.06.86-.19.47a.93.93,0,0,0,0,.24,1.06,1.06,0,0,0,.43.76l0,.33Z"/><path class="cls-1" d="M595.06,77.23a.79.79,0,0,1-.08.28l-.42.48-.45.47c-.18.18-.32.27-.43.27h0l-.82-.14-1,.06-.35-.19-.58.05-1.24-.1-.43,0-.35.05-.23-.28-.3.1-.52.29-.4.08-.46-.05-.77-.16h0l0,0-.73.14-1.08-.11-.71.11-.32.05a3.71,3.71,0,0,1-.13.8,5.7,5.7,0,0,0-.08,1v.44l.08,1,0,.7a1.61,1.61,0,0,1,0,.26l-.32,1.2.06.16c.21.07.31.15.31.27l-.13.36,0,.24.16.07,0,.11-.2.49.11.46-.06.57.21.88,0,1.46v.79a.45.45,0,0,1-.12.32,3.7,3.7,0,0,1-.47.31l-.25.13,0-.08a1.1,1.1,0,0,0-.56.23l-.19.19-.08,0-.15,0-.18,0-.3.06,0-.63a1,1,0,0,1,.07-.44.81.81,0,0,1,.28-.27l0-.2a1.25,1.25,0,0,1,.12-.35l-.25-.41.1-.27.17-2.35.11-.28-.13-.5.22-.82v-.38l-.13-.08V84l-.07-.08,0-.33-.07-.42v-.32a.38.38,0,0,1,.13-.28l0-.71-.21-.13.06-1.87a.52.52,0,0,0,.15-.4v-.21a.77.77,0,0,1-.27-.35,1.7,1.7,0,0,1-.07-.59l0-.42a1.2,1.2,0,0,0,.25-.6l0-.28-.28.09,0-.33.13-.55a2.35,2.35,0,0,0,.07-.6.84.84,0,0,0-.1-.48.62.62,0,0,0-.36-.2l0-.58-.37-.17c0-.24.05-.38.15-.43l.8-.23,1-.35,1.24.06a3.43,3.43,0,0,1,.93.16,2.23,2.23,0,0,0,.66.21h0l.56-.13.37.17.47,0,.71.13.49,0h1.89l2.92-.44h.38a1,1,0,0,1-.27.6,1.91,1.91,0,0,1-1.36.79h-.15l-3,0-.54-.13-1.46,0-.28-.13a1.7,1.7,0,0,0-.47,0l-.07.08-.06.13-.34,0-1.31-.1a1.67,1.67,0,0,0-.6.13l.17.13-.2.15.05.58c-.17.15-.26.26-.26.34a1.4,1.4,0,0,0,.19.53l.13.3-.13.71.35,0,.08.13.15,0,.37.11.79,0,.45.25.17-.1,0-.15.51.09,1.44,0a7.21,7.21,0,0,1,1.31.16l.25-.16h.18l2.83-.07.62.12.82-.31.47,0,.82-.22Z"/><path class="cls-1" d="M604.72,79.85a.27.27,0,0,1,0,.12l-.75.6-.39.43-.25.09-.34-.22-.24-.24-.77,0-.73-.31-.28-.08a.79.79,0,0,1-.35.37,2.38,2.38,0,0,1-.73.07l-.43.19-.32-.11-.26.22-1,.83a2.31,2.31,0,0,0-.3,1.28l0,1-.28.18a1.84,1.84,0,0,1,.26.89h.19l0,.37,0,1.73,0,.9-.06.82q-.39.24-.39.39a1.33,1.33,0,0,0,.09.24l.36-.08,0,.12.12.53v.07a.62.62,0,0,1-.21.42.75.75,0,0,1-.43.24l-.51,0-.76.41-.32-.2,0-.26.19-.78-.07-1,.07-.15h.26v-.16l0-.24-.16-.39,0-.54-.1-.47v-.39l0-.43.12-.14c0-.05.09-.12.15-.22a2.84,2.84,0,0,0,.22-.36l.13-.32,0-.13c-.4,0-.6-.1-.6-.28l.06-1-.07-1a.54.54,0,0,1,.15-.26V82.2l-.15-.16-.06-.32,0-.72-.28-.58a1.57,1.57,0,0,1,.41-.81l.81-.44.48-.32a1.05,1.05,0,0,1,.49.25.71.71,0,0,1,.13.48V80c0,.33.07.5.21.5H598l.66-.36.66-.26,1.1-.63.37-.16.29.08.58-.18a2.63,2.63,0,0,1,.76-.16l.56.05c.18.25.32.37.44.37l0,0h.05l.3-.16a.29.29,0,0,1,.15-.06.77.77,0,0,1,.6.37A.71.71,0,0,1,604.72,79.85Z"/><path class="cls-1" d="M616.63,90.15l-.13.25-.21.32-.37.15-.54.29-.49.16a3.09,3.09,0,0,1-.56.21.26.26,0,0,1-.18-.11.24.24,0,0,1-.08-.18,2.93,2.93,0,0,1,.13-.6,2,2,0,0,0,.09-.47l-.24.18-1.16.4a1.57,1.57,0,0,1-.71.17h-.53l-.6.3-.41,0-1.22.26-.48-.09-.34.14-.26,0-.38,0-.86-.19-.58-.06a2,2,0,0,1-1-.42,1.91,1.91,0,0,1-.63-.87l-.36-.14-.07-.33,0-.24-.19-.63.49-1,.15-.44a1.57,1.57,0,0,1,.48-.51l1-.85.44-.17.71-.3h0l.08,0a1,1,0,0,1,1-.57l.07-.08h.27a1.12,1.12,0,0,1,.33-.3,3.58,3.58,0,0,1,.64-.17l1.61-.29.49,0,.6-.13,1.08-.12c.38-.09.56-.28.56-.55,0,0,0-.07,0-.08l-.14-.6.12-.87a.59.59,0,0,0-.2-.41.92.92,0,0,0-.46-.17l-.19-.31a2.39,2.39,0,0,0-.45-.62,2.05,2.05,0,0,0-.69-.25l-.75-.17-.71,0-.33.06a.44.44,0,0,1-.18-.14.54.54,0,0,1-.11-.24l-.35.16-.39.39-1.28.66a1.4,1.4,0,0,0-.52.44l-.19.26a.39.39,0,0,1-.35.22l-.25,0-.37-.19-.41-.08a1.33,1.33,0,0,1-.39-.23c-.13-.11-.19-.2-.19-.29s0-.08,0-.08l.21-.16.41-.34.45-.08.69-.36.86-.29.23-.06.56-.31.45.08,1.55-.34.68,0H612l.55.19,1.53.31.23.13v.19l-.17.11c.05.31.15.46.32.46l0,0h0l.36-.16H615a.16.16,0,0,1,.17.13l.26.5.27.21v.31l0,.68a1,1,0,0,0,.41.76l.17,2-.36.5.4.48,0,.17-.07,1.26.09,1v.52l-.18.06,0,.42a1,1,0,0,0,.1.28c.05.12.11.26.17.42Zm-2.06-2.33a1.1,1.1,0,0,1-.24-.29l0-.55-.11-1.23.15-.36-.41-.24-.21,0-1.19-.08-.57,0-.41-.31-.26.16-.71,0-.51.2-.3-.18-.35.23-2,1-.41.32-.34.52-.47.29a.36.36,0,0,0-.09.24.08.08,0,0,1,0,0l.11.16,0,.12.3,1.2-.3.77.21.26.36-.42.33.26a1,1,0,0,0,.38.18l.56.16.26.37.9.1.24-.26.27.14.16-.11.15-.08.36.11a2.12,2.12,0,0,0,1-.38l.1-.06.2-.11a1.85,1.85,0,0,0,1.53-.5l.27-.34.63-.55,0-.16,0-.18a.45.45,0,0,0,.25-.16A1,1,0,0,0,614.57,87.82Z"/><path class="cls-1" d="M631,90.15l-.13.39-1.78.88a1.76,1.76,0,0,1-.36-.6v-.07l.3-1.28,0-.58.09,0,.23-.27a.79.79,0,0,0-.18-.28,1.22,1.22,0,0,0-.31-.16l-.06-.22.23-2.5-.13-.34,0-.45v-1l.15-.5-.23-.24,0-.8a2.36,2.36,0,0,0-.47-.84v-.14a.27.27,0,0,0-.11-.25l-.32,0-.65-.41-1.07.07-1.22-.1a1.07,1.07,0,0,0-.33.34l-.25-.06-1,.19-.35.08-.45.36-.58.27a.82.82,0,0,0-.49.64l0,1.31-.17.82.28.8v.43l0,1.59-.25.55,0,.2v.08l.25.43.07,1.45.1.47a.51.51,0,0,1-.29.39l-.84.21-.24.06q-.21.36-.39.36a.43.43,0,0,1-.29-.15.09.09,0,0,0,0,0l-.06-.06c0-.07,0-.09,0-.08l.19-1,0-1.12.13-.45-.09-.75.06-.82,0-1.72c0-.24.14-.36.44-.39,0-.2-.06-.32-.13-.37a.78.78,0,0,0-.43-.07l0-2.41.28-.19-.15-.28-.35-1-.23-.31.15-.3.26-.33.47-.21.45-.37a.82.82,0,0,1,.49-.16.63.63,0,0,1,.32.1.33.33,0,0,1,.18.22l0,1.26.06.42.24-.08a7.2,7.2,0,0,1,1.1-1.11,1.81,1.81,0,0,1,.94-.51c.1,0,.19.09.26.28a2.15,2.15,0,0,0,.6-.31,1.36,1.36,0,0,1,.64-.21h.07l1.07.1.39-.13,1.2.16a1.59,1.59,0,0,1,1,.44l.18,0a.8.8,0,0,1,.68.37l.18.33.27.45a1.72,1.72,0,0,1,.18,1v.75l.06.32-.32.42.11.33.15.29v.55a.67.67,0,0,1,0,.16l-.19.39a.87.87,0,0,0-.06.39l.26.35v.39l0,.93V87l.2.52,0,1.2Z"/><path class="cls-1" d="M645.23,88.52a.53.53,0,0,1,0,.13l-.15.68v0a.11.11,0,0,0,0,.07l-.57.71-.31.09-.51.35-.21,0-.58.31h0l-.83,0a1.46,1.46,0,0,0-.59.19l-.68.39-1,.08-1-.08-.22-.2-.77-.11-.86-.24-1.18-.28-.56-.5-.51-.53.17-.47a1.27,1.27,0,0,1-.47.11h-.09L634,89l-.32-.58-.17-.24-.09-.76.11-.39-.11-.21-.27-.31.17-.68-.07-1.23.47-.81.54-1.17L635,82l1.29-1.28.37-.29.51-.37.22-.08.55-.41,1.66-.55.4-.11h0a.05.05,0,0,1,0,0l.66.29.65-.19,1.26.22,1-.16a1.88,1.88,0,0,1,.43.16,1.31,1.31,0,0,1-.22.57,2,2,0,0,1-.51.31l0,.29-.53.34-.37.19h-.06l-.33-.06-.45.06-2-.32a1.15,1.15,0,0,0-.3,0,.79.79,0,0,0-.26,0l-1.09.21h-.33a1.45,1.45,0,0,0-.88.71l-.55.2-.24.55-.45.08a.38.38,0,0,1,.06.18L635,83.63l0,.47,0,.82a6.19,6.19,0,0,0,.09,1,2.77,2.77,0,0,0,.28.77l-.11.31a.82.82,0,0,0-.13.29.37.37,0,0,0,.07.2l.38.11a2.64,2.64,0,0,1,.39.49l.36.5a.56.56,0,0,0,0,.12l.09.17h.28l.17.23.84.63.37.32.41.13.38.15.58,0,1.5.16,0,0a2.76,2.76,0,0,0,.92-.39l.24.09.88-.64a1.69,1.69,0,0,0,.7-.29,7.28,7.28,0,0,0,.89-.86c.12-.14.22-.21.32-.21a.22.22,0,0,1,.19.08A.27.27,0,0,1,645.23,88.52Z"/><path class="cls-1" d="M659.91,89.91a1.93,1.93,0,0,1-.3.73l-.05.11a.94.94,0,0,1-.71.61l-.7.08-.26.17-.13,0-.19,0-.52-.19-.81-.23-.65-.29-.26-.18,0-.34c0-.23-.16-.34-.48-.34h-.3l-.08.17-.28-.17-1.68-1.44-.42-.15L650,86.67a.3.3,0,0,0-.17,0,.22.22,0,0,0-.15.08.31.31,0,0,0-.07.2v0l.29,3.59a.5.5,0,0,1-.17.35.73.73,0,0,1-.33.22l-.88.22-.34.23-.3.13a.71.71,0,0,1-.17-.39v-.13l.23-1.62-.13-2.68.28,0a.64.64,0,0,0,.15-.35.92.92,0,0,0,0-.2q-.39-.19-.39-.42a3.22,3.22,0,0,1,.37-.88c0-.11-.13-.19-.35-.24v-.39l0-1.28,0-.86.06-1a.74.74,0,0,0,.24-.2.8.8,0,0,0,.06-.37l-.32,0-.06-3.82c.22-.09.32-.22.32-.38a1.8,1.8,0,0,0-.06-.45l-.26-.21v-.57l-.18-1.45.13-1.35-.13-.55-.12-.08,0-.39-.18-1.57,0-1.52-.1-.36.13-.89-.11-.23a.5.5,0,0,1,.12-.19,1.29,1.29,0,0,1,.31-.13s.25-.21.71-.58l.26-.22a.85.85,0,0,0,.38-.11l.24-.19.19.11v.21h-.09l-.12.73.08,2.24-.06,1.23a5.65,5.65,0,0,0,.1,1l-.25.21,0,1.18.09.24.28,0,0,.21,0,.85.09.57,0,.26,0,1,0,1.89v1.28l-.13.86v.16a.64.64,0,0,0,.06.33l.28.51a.09.09,0,0,0,0,0,.07.07,0,0,1,0,0l-.09.78v.14l.09,1.62v.33l0,.63-.11.9v0a2.06,2.06,0,0,0,.13.58l.17-.08.58-.5.82-.57L653,82.56l1.66-1.72.81-1a4.41,4.41,0,0,1,1.29-1l.35.26c.23.17.34.31.34.42a1.87,1.87,0,0,1-.56,1l-.26.08a1,1,0,0,0-.36.17,1.18,1.18,0,0,0-.17.33,1.7,1.7,0,0,0-.76.16v.32a.64.64,0,0,1-.19.52l-.77.6-.34.31-.18,0h-.21a1.08,1.08,0,0,1-.19.52l-.56.33-.45.46-.41.33a.66.66,0,0,0-.37.55c0,.21.17.42.5.63a5.9,5.9,0,0,1,1.57,1.17l.42.86a1.48,1.48,0,0,0,.73.46l.33-.22,1.58.71a.28.28,0,0,1,.18.25l0,.17.53.33.21-.2.58.2.35.16H659a.79.79,0,0,1,.33.11.53.53,0,0,1,.36-.19.35.35,0,0,1,.18,0A.16.16,0,0,1,659.91,89.91Z"/><path class="cls-1" d="M682.15,89.6l-.17.25-.28.19-.26.28.13.3c-.22.24-.39.36-.5.36l-.55,0-.35.24-.3.09h0l-.69-.12-1.78.08-1.67-.16-1.29.08a1,1,0,0,1-.64-.16l-.33-.18-.3-.06v.3a2.06,2.06,0,0,1-.66.13,5.21,5.21,0,0,1-1-.13l.06.1-.41,0-.17,0a.84.84,0,0,1-.21-.15l-.24,0,0,.08-.36.08-1.68.2-.28,0c-.21,0-.32-.08-.32-.25V91l.49-.2v-.19l.18-.13a2.85,2.85,0,0,1,.11-.69,1.28,1.28,0,0,1,.34-.41l-.09-.39,0-1.36,0-.36.26-.43-.3-.23.19-.44.09-.4.15-.33L669.1,85l.06-.3-.06-.22,0-.38-.07-.41.09-1v-.6l.24-.52.08-.3-.32-.13-.09-1.48a.51.51,0,0,0,.3-.24l-.13-.7-.27,0a9.76,9.76,0,0,1-.18-2,2.57,2.57,0,0,1,.13-.85l-.13-.3-.08-.77-.17-.32h-.15l-.2-.36.26-.25.32-.13.37-.33.73-.24.21-.15.28-.08.28.11h.17v.17l.07.08,0,1,0,.46a.8.8,0,0,1,0,.33,1.11,1.11,0,0,1-.19.2l-.08.28.08.08.19,0v.16l-.1.08.17.55v0l-.07.85.07.76v.29l-.09,1h-.21a2,2,0,0,0-.11.44.49.49,0,0,0,.34.52l0,.31,0,2.1a5.29,5.29,0,0,1-.19,1.51l-.11-.08a.53.53,0,0,0-.13.27s0,.07.05.23l.28.08.08.44v.4l0,0-.06,1.33v.4a.49.49,0,0,0-.21.31c0,.06.07.15.21.26v.78l-.07.79a.57.57,0,0,0,.25.52,1.47,1.47,0,0,0,.78.16,8.38,8.38,0,0,0,.86-.08l.07.11.3,0,.44.21.28,0c.11,0,.21-.11.3-.28l1.61.09,1,0,1.08-.13.19,0v.28a2.19,2.19,0,0,0,.6.16,1.88,1.88,0,0,0,.41-.08.43.43,0,0,1,.07-.28.85.85,0,0,1,.27-.19l.2,0a1.94,1.94,0,0,0,.77-.22.77.77,0,0,0,.23.2.45.45,0,0,0,.2,0,1.11,1.11,0,0,1,1-.49Z"/><path class="cls-1" d="M695.15,88.32a.73.73,0,0,1-.06.3l-.26.47-.6,1.08-.56,0-.36.3a.71.71,0,0,1-.39.16l-2.32.47-.36.13-.84-.08-1.18.11-1.35-.08h-.37l-.36-.27-1.25-.47-.43-.41-.85-.6-.67-.93-.24-.22a1.42,1.42,0,0,0,.15-.58.21.21,0,0,0-.06-.16l-.36-.58-.07-.76,0-.61a3.05,3.05,0,0,1,.15-.82,2.93,2.93,0,0,1,.36-1l.46-.63.25-.57.61-.61.66-.89.58-.34.84-.6.56-.39.19-.13.39-.08,1.18-.39.92-.11.54-.24.28,0a1.29,1.29,0,0,1,1.11.73.42.42,0,0,0,.35-.28l.36.31.47.27L693.68,81a4.45,4.45,0,0,1,.32.46c.08.13.15.27.23.41a3.29,3.29,0,0,1,.19.47c.06.17.14.43.26.78l.09.33-.11,0-.51-.1-.56.18-.43-.08-.47.14-.92-.11-.86,0-.89-.16-1.48,0-.72,0-1.76.24-.61,0-.88.27-.32.06-.06.32a1.26,1.26,0,0,1-.08.46,1.11,1.11,0,0,1-.29.28l0,.25a2.81,2.81,0,0,1,.45.42l.33,1.36.17.34a.36.36,0,0,0-.13.24.08.08,0,0,1,0,0l.49.16.13.33a.88.88,0,0,0,.33.58l.7.29.22.53a1.88,1.88,0,0,0,.58.14l.19.35.39,0,1.12.42.92-.19,2.45-.41.55-.34.82-.52.69-.92a.52.52,0,0,1,.42-.23C695,87.9,695.15,88,695.15,88.32Zm-3-6.3a2.33,2.33,0,0,0-.48-.9l-.9-.67-.28-.32-.43,0L689,80l-.22.06-.56.32-.71.17-.9.35-.36.13-.41.65a2.09,2.09,0,0,0-.41.34l-.06.16,1.59.12.17,0,.3-.1.28.07.77.16h0l.86-.16.28-.07.2.31h.3l1.13-.24.46,0C692,82.3,692.11,82.19,692.11,82Z"/><path class="cls-1" d="M710.91,84.29a3.34,3.34,0,0,1-.64,1.78l-.19,0a1,1,0,0,0-.22.52,2,2,0,0,0,.08.54l-.08.14-.06.31-.3.34-.52.75-.64.4L707,90.35l-.6.32-1.12.47-1,.22-1.14.19h0l-.8-.23h-.56L700,90.87,699,90.79l-.66-.23-1.18.5-.17,0-.17,0v-.29l0-.33.33-.31c.27-.19.4-.33.41-.43l.16-.31.2-.32,0-1.51a.67.67,0,0,1,.14-.35.5.5,0,0,1,.39-.12l.07-.41,0-.22-.5-.21,0-.17.08-1.94,0-.74.13-.23.2,0,0-.32-.35-.28,0-.19,0-.16.05-.36-.19-1.15,0-1,0-.58a.12.12,0,0,1,0-.08l.23-.44a.31.31,0,0,0,.05-.19.78.78,0,0,0-.32-.57v-2.8l-.08-.36.09-1.47-.09-.76V72l.36-.58-.15-.33a.88.88,0,0,1-.17-.44l0-.22c.31-.15.46-.32.46-.52s-.15-.38-.46-.41l-.25-.63.19-1.42-.24-.52a.93.93,0,0,1-.21-.41l.34-.27.52-.42.68-.2.48-.24a.51.51,0,0,1,.28-.08.57.57,0,0,1,.37.14.41.41,0,0,1,.16.3,3,3,0,0,1-.23.69l-.15.26a1.07,1.07,0,0,1,.32.55v.06l-.15.6,0,.6-.19.52.15,1.65-.33.54a.75.75,0,0,0-.08.31.12.12,0,0,0,0,.11l.41.6-.19,2.11.19,1.15c0,.22-.13.37-.39.47l-.32.11,0,.44a.69.69,0,0,0,.1.4,2.21,2.21,0,0,0,.4.31l0,.29.1.94a1.42,1.42,0,0,1-.1.44l-.35.84c0,.12.13.24.41.36a.67.67,0,0,0,.3.08c.18,0,.4-.14.65-.44a1.27,1.27,0,0,0,.38.08,3.3,3.3,0,0,0,.9-.24l1.19-.41c.12.22.25.33.42.33a1.58,1.58,0,0,0,.43,0l.05-.28.32,0,.66,0a.39.39,0,0,1,.31.2,7.68,7.68,0,0,1,1.56.16,2.14,2.14,0,0,1,.92.35,1.07,1.07,0,0,1,.33.69l.39.08c.09-.17.2-.25.32-.25a.18.18,0,0,1,.14,0l.22.31.37.36.25.58.43.45.11.23.17,1,.24.52A1.33,1.33,0,0,1,710.91,84.29Zm-2.25,1.31-.19-1.72,0-.46q0-.28-.09-.33l-.54-.39-.25-.5a2.12,2.12,0,0,0-.71-.6l-1-.6-.65-.35-1.75-.17-1-.19a1.55,1.55,0,0,0-.66.13l-1.24.75-.88.5a1,1,0,0,0-.13.45l.1,1.15.07.81v.29l0,.28-.31.63.37,1.18-.11.65.07,1.83v.11a1.27,1.27,0,0,0-.41.55q.31.33.51.33l.91.06.43.18h.43l.53.21.35.1v.11l.31-.13H703l1.18.05,1-.27a2.52,2.52,0,0,0,1.54-.75l.6-.65.39-.42.47-1,.32-.63.13-.9Z"/><path class="cls-1" d="M715.85,88.68l0,.71,0,.54a.39.39,0,0,1-.19.34l.08.32-.28,0-.86.55-.34,0-.39.26h-.1l-.09,0c-.16,0-.24-.06-.24-.17V91l-.08-.6.17-1.46.07-1.86a2.71,2.71,0,0,1,.28-1.12l-.14-.42a2,2,0,0,1-.23-.48,2.06,2.06,0,0,1,.32-.77.78.78,0,0,0,.13-.44c0-.13-.13-.25-.39-.35l.05-.23-.11,0v-.4l.23-.94v-2.3l.26-1.07c0-.14-.11-.3-.32-.47v-.63L713.6,75a2.46,2.46,0,0,1,.34-.91l.21-.35c-.33-.15-.49-.29-.49-.42,0,0,0-.13.07-.52l-.26-.24v-.52l-.05-.63v-.12l.22-.68-.22-1,.05-.47-.26-1.56v-.22l.09-.44.1-.55,1.16-.65.52-.42.23,0,.17.29,0,.58.1.39,0,.22v.32l-.09,1v.08l0,.47a.76.76,0,0,1-.06.35l-.3.7-.05.26a.54.54,0,0,1,.33.09.6.6,0,0,1,.08.38v.3a.53.53,0,0,1-.32.44v.33l0,.27v.11l.23.38-.1,2.56v1.83l-.35.71.2,1-.28.65a1,1,0,0,0,.23.31l.22.24.11,4.33-.33.38a3.12,3.12,0,0,1,.05.55,2.84,2.84,0,0,1-.13.88l.13.29h.36v.5Z"/><path class="cls-1" d="M732.57,84.26l-.28-.05.05.31-.3.21a.78.78,0,0,0,.11.3l.23.17,0,.27a5.89,5.89,0,0,1-1.09,3.15,5.62,5.62,0,0,1-.61.79l-.46.55-.39.11-2.43,1.17-1.35.06-1,.25-1.16,0-.42.1-1.16-.21-.46,0-.27-.31-.73-.1-.33-.19-.73-.58-.39-.31-.14-.15-.28-.58-.39-.33-.32-.85-.11-.33.15-.11a.49.49,0,0,1,0-.25.43.43,0,0,1,.24-.13l-.08-.22-.43-.28v-.55a5.36,5.36,0,0,1,.13-1.13,8.11,8.11,0,0,1,.45-1.3,4,4,0,0,1,.75-1.34L720,82l.28-.52a.9.9,0,0,1,.37-.38l1.22-.67.69-.57.82-.32,1.45-.52,1.21-.11.94,0c.53,0,.8.16.8.46.14.13.23.2.28.2s.27-.13.43-.39l.32.08.85.31.33.29.49.31.47.76a.94.94,0,0,0,.77.26,2.91,2.91,0,0,1,.5.95,12.78,12.78,0,0,1,.28,1.72Zm-1.88.34-.48-1.54-.08-.68-.13-.26h-.07a.25.25,0,0,1-.16,0,.6.6,0,0,1-.16-.14l-.64-.82-.2-.33-1.09-.53a2.88,2.88,0,0,0-.26-.39.36.36,0,0,0-.26-.13,1.72,1.72,0,0,0-.53.14,1.54,1.54,0,0,0-.54-.16l-.37,0-.64,0-.86.33-.21-.19-.17.22-.88.55-1.61,1.44-.3.28a4.79,4.79,0,0,1-.6,1.57l-.18.32v.1c0,.2,0,.33-.1.39a.68.68,0,0,1-.35.14l-.06.2,0,0a.08.08,0,0,1,0,0l.39.46.06.3c-.28.23-.41.39-.41.47l0,.16a.32.32,0,0,1,.23-.14.16.16,0,0,1,.15.08l.3,1,.65,1.13-.07.68a.33.33,0,0,0,.22.11.53.53,0,0,0,.34-.16l.24.08,1.57,1,1.6.16.9.13,1-.19.68-.16.82-.88.62-.19.3-.33.67-1.47.36-.31c.12-.13.19-.23.19-.32v-.07l-.21-.63Z"/><path class="cls-1" d="M746.38,90.15l-.13.39-1.78.88a1.84,1.84,0,0,1-.35-.6v-.07l.3-1.28,0-.58.09,0,.22-.27a.8.8,0,0,0-.17-.28,1.22,1.22,0,0,0-.31-.16l-.06-.22.23-2.5-.14-.34,0-.45v-1l.15-.5-.22-.24,0-.8a2.53,2.53,0,0,0-.47-.84v-.14a.3.3,0,0,0-.11-.25l-.32,0-.66-.41-1.06.07-1.22-.1a1.19,1.19,0,0,0-.34.34l-.24-.06-1,.19-.36.08-.45.36-.58.27a.8.8,0,0,0-.48.64l0,1.31-.17.82.28.8v.43l0,1.59-.24.55,0,.2v.08l.24.43.08,1.45.09.47a.43.43,0,0,1-.07.21.46.46,0,0,1-.21.18l-.84.21-.25.06q-.2.36-.39.36a.41.41,0,0,1-.28-.15.06.06,0,0,0,0,0l0-.06c0-.07,0-.09,0-.08l.19-1,0-1.12.13-.45-.09-.75,0-.82,0-1.72c0-.24.15-.36.45-.39a.57.57,0,0,0-.13-.37.8.8,0,0,0-.43-.07l0-2.41.28-.19-.15-.28-.36-1-.22-.31.15-.3.26-.33.47-.21.45-.37a.79.79,0,0,1,.48-.16.7.7,0,0,1,.33.1.33.33,0,0,1,.18.22l0,1.26,0,.42.25-.08a7.13,7.13,0,0,1,1.09-1.11,1.83,1.83,0,0,1,1-.51c.1,0,.18.09.26.28a2.46,2.46,0,0,0,.6-.31,1.36,1.36,0,0,1,.63-.21H741l1.07.1.39-.13,1.2.16a1.57,1.57,0,0,1,.95.44l.19,0a.78.78,0,0,1,.67.37l.19.33.26.45a1.61,1.61,0,0,1,.19,1v.75l.06.32-.32.42.11.33.15.29v.55a.57.57,0,0,1,0,.16l-.19.39a1.1,1.1,0,0,0,0,.39l.26.35,0,.39,0,.93V87l.21.52,0,1.2Z"/><path class="cls-1" d="M762.45,90.56l0,.28-.28.08-.88.16-.94.08a2.63,2.63,0,0,0-.13-.68.52.52,0,0,0-.22-.24,1.22,1.22,0,0,1-.26.18l-.31.12a2.53,2.53,0,0,0-.33.16q-1.49.8-5.41.8a3.07,3.07,0,0,1-1.11-.15.9.9,0,0,1-.5-.51.56.56,0,0,0-.38.22l-.41-.14a1.33,1.33,0,0,0-.1-.37.66.66,0,0,0-.31-.2l-.17.16a1.77,1.77,0,0,1-.63-.28,8.84,8.84,0,0,1-.72-.74.76.76,0,0,0,.06-.32.71.71,0,0,0-.26-.55l-.38-.36,0-.27-.22-1v-.23a3.31,3.31,0,0,1,.17-1l0-.28.15-.32.8-2c.13-.29.3-.43.51-.43h0l.41,0,.17-1.12.5-.42.53-.63.37-.25.22-.22a1.43,1.43,0,0,1,.29-.1,1.23,1.23,0,0,0,.28,0,.84.84,0,0,1,.32.06.64.64,0,0,1,.2.24,1.12,1.12,0,0,1,.66-.46l0-.41.37-.16.65-.21.33-.1.46,0,.6-.22.28.19a1.8,1.8,0,0,0,.28.13l0,.14c.1.08.16.12.19.12s.17-.13.3-.39l.69.16a6.9,6.9,0,0,1,1,.27.92.92,0,0,1,.36.33l.77,0-.09-.27-.15-.23-.08-1-.07-.28.09-.68L760,75.53l0-.2.43-.16-.19-.27-.06-.36-.18-.6a1.76,1.76,0,0,1-.1-.66v-.16l.13-1.9-.11-.84L760,70a.33.33,0,0,0,.28-.27l-.17-.17a1,1,0,0,1-.51-.19v-.33l-.11-.82,0-.91a.57.57,0,0,0-.28-.45c.08-.32.21-.51.41-.55l.79-.18.54-.34.58-.14.28-.09a1.06,1.06,0,0,1,.27.7l0,.32-.13.71v.38l0,1.18v1l-.15.57,0,1.24a1.89,1.89,0,0,1-.3.54l.37,1.13-.07.29v.64l-.1.27.1.91a1.57,1.57,0,0,1-.1.49h-.3a2.92,2.92,0,0,0-.11.61s0,.09,0,.1l.45.66,0,1,.09,1.13-.05.45,0,.2,0,.27-.19.23.08,1.25,0,.9.09.85v.58l.09.65v1l.19,1,0,.84.17.61,0,.54v.42a1.16,1.16,0,0,1,.22.53A3.7,3.7,0,0,1,762.45,90.56Zm-2.1-5.51-.13-.84c-.21-.08-.32-.19-.32-.33v-.06l.11-.57-.07-1v-.26l-.13-.31v-.32c0-.13-.05-.19-.14-.19a.09.09,0,0,1-.1-.07l-.52.12-.13,0-.19,0-2.4-.6-.88,0h-.28c-.08,0-.14,0-.15,0l-.45.19H754l-.77.52-.52.08-.37.27-.53.49a1.58,1.58,0,0,0-.37.58l0,.33-.5.55-.55.82a2.1,2.1,0,0,0-.2.75,1.42,1.42,0,0,0,.09.52l.09.24.28,1.09.3.55,0,.3V88l.32.13A6.72,6.72,0,0,0,752,89a3.72,3.72,0,0,0,.83.63l.58.26.21.11.37,0h.34l.73.29h.82l1.29-.06a4,4,0,0,0,1-.21,6,6,0,0,0,.91-.34l.6-.52.28-.36-.14-.35.08-.36,0-.39,0-.54-.06-.61,0-.08,0-.44-.09-.6,0,0C759.77,85.26,760,85.12,760.35,85.05Z"/></g><g id="_.com" data-name=".com"><path class="cls-4" d="M446.46,80.62a1.89,1.89,0,0,1,1.91-2,2,2,0,0,1,0,4A1.89,1.89,0,0,1,446.46,80.62Z"/><path class="cls-4" d="M464.65,81.71a10.27,10.27,0,0,1-4.41.9c-4.64,0-7.65-3.17-7.65-7.9a7.83,7.83,0,0,1,8.25-8.22,9.16,9.16,0,0,1,3.87.8l-.63,2.17a6.49,6.49,0,0,0-3.24-.73c-3.52,0-5.43,2.62-5.43,5.85,0,3.58,2.29,5.79,5.34,5.79a7.88,7.88,0,0,0,3.42-.77Z"/><path class="cls-4" d="M481.63,74.42c0,5.72-3.93,8.22-7.65,8.22-4.15,0-7.36-3.07-7.36-8,0-5.18,3.36-8.21,7.62-8.21S481.63,69.69,481.63,74.42Zm-12.19.16c0,3.39,1.94,6,4.67,6s4.67-2.53,4.67-6c0-2.62-1.31-5.94-4.61-5.94S469.44,71.64,469.44,74.58Z"/><path class="cls-4" d="M485.16,71c0-1.6,0-2.91-.13-4.19h2.44l.13,2.49h.1a5.27,5.27,0,0,1,4.82-2.84,4.53,4.53,0,0,1,4.35,3.1h.06a6.31,6.31,0,0,1,1.72-2A5.21,5.21,0,0,1,502,66.46c2,0,5,1.34,5,6.71v9.12h-2.73V73.52c0-3-1.08-4.76-3.33-4.76a3.61,3.61,0,0,0-3.3,2.56,4.51,4.51,0,0,0-.23,1.4v9.57h-2.73V73c0-2.46-1.08-4.25-3.2-4.25a3.82,3.82,0,0,0-3.46,2.81,3.92,3.92,0,0,0-.22,1.38v9.34h-2.73Z"/></g><g id="Miami"><path class="cls-1" d="M336.86,65.06c-.28-5.36-.61-11.8-.55-16.58h-.17c-1.27,4.5-2.82,9.28-4.69,14.58l-6.57,18.63h-3.64l-6-18.29C313.46,58,312,53,310.92,48.48h-.11c-.11,4.78-.39,11.22-.72,17l-1,16.46h-4.58l2.59-38.4h6.13l6.34,18.57c1.55,4.73,2.82,9,3.75,12.94h.17c.94-3.88,2.26-8.09,3.92-12.94L334,43.52h6.13l2.32,38.4H337.8Z"/><path class="cls-4" d="M355.79,46.6a3,3,0,1,1-6,0,3,3,0,0,1,3-3.14A2.94,2.94,0,0,1,355.79,46.6Zm-5.41,35.32V54.34h4.86V81.92Z"/><path class="cls-4" d="M378.09,81.92l-.39-3.47h-.17a9.86,9.86,0,0,1-8.16,4.1,7.73,7.73,0,0,1-8.17-7.92c0-6.67,5.74-10.31,16.06-10.26V63.8c0-2.28-.61-6.38-6.07-6.38a13,13,0,0,0-7,2l-1.1-3.3a16.2,16.2,0,0,1,8.77-2.45c8.17,0,10.16,5.75,10.16,11.28V75.31a40.15,40.15,0,0,0,.44,6.61Zm-.72-14.07c-5.3-.12-11.32.85-11.32,6.21,0,3.25,2.1,4.78,4.58,4.78a6.66,6.66,0,0,0,6.46-4.61,5.23,5.23,0,0,0,.28-1.6Z"/><path class="cls-4" d="M389.9,61.81c0-2.85-.06-5.19-.22-7.47h4.25l.22,4.45h.16a9.18,9.18,0,0,1,8.39-5.07,7.92,7.92,0,0,1,7.56,5.52h.11a11.34,11.34,0,0,1,3-3.58,8.9,8.9,0,0,1,5.91-1.94c3.53,0,8.77,2.39,8.77,12V81.92h-4.74V66.31c0-5.3-1.88-8.49-5.8-8.49a6.33,6.33,0,0,0-5.74,4.56,8.49,8.49,0,0,0-.38,2.51v17h-4.75V65.4c0-4.39-1.88-7.58-5.57-7.58-3,0-5.25,2.51-6,5a7.07,7.07,0,0,0-.39,2.45V81.92H389.9Z"/><path class="cls-4" d="M441.34,46.6a3,3,0,1,1-6,0,3,3,0,0,1,3-3.14A2.94,2.94,0,0,1,441.34,46.6Zm-5.41,35.32V54.34h4.85V81.92Z"/></g><g id="Apparta"><path class="cls-1" d="M117,69.84l-4,12.08h-5.18l13.17-38.4h6l13.24,38.4h-5.35L130.7,69.84ZM129.67,66l-3.8-11.06c-.86-2.5-1.44-4.78-2-7h-.12c-.57,2.28-1.2,4.61-1.95,7L118,66Z"/><path class="cls-4" d="M145.55,63.35c0-3.54-.12-6.38-.23-9h4.54l.23,4.73h.12a11,11,0,0,1,9.89-5.35c6.73,0,11.79,5.64,11.79,14,0,9.92-6.1,14.82-12.65,14.82a9.79,9.79,0,0,1-8.57-4.33h-.12v15h-5Zm5,7.35a11.68,11.68,0,0,0,.23,2,7.8,7.8,0,0,0,7.59,5.87c5.35,0,8.46-4.33,8.46-10.66,0-5.52-2.93-10.25-8.28-10.25a8.05,8.05,0,0,0-7.65,6.21,7.65,7.65,0,0,0-.35,2Z"/><path class="cls-4" d="M178.28,63.35c0-3.54-.12-6.38-.23-9h4.54l.23,4.73h.12a11,11,0,0,1,9.89-5.35c6.73,0,11.79,5.64,11.79,14,0,9.92-6.09,14.82-12.65,14.82a9.79,9.79,0,0,1-8.57-4.33h-.12v15h-5Zm5,7.35a11.68,11.68,0,0,0,.23,2,7.8,7.8,0,0,0,7.59,5.87c5.36,0,8.46-4.33,8.46-10.66,0-5.52-2.93-10.25-8.28-10.25a8.05,8.05,0,0,0-7.65,6.21,7.65,7.65,0,0,0-.35,2Z"/><path class="cls-4" d="M226.42,81.92l-.4-3.47h-.17a10.4,10.4,0,0,1-8.51,4.1c-5.64,0-8.52-3.93-8.52-7.92,0-6.67,6-10.31,16.74-10.26V63.8c0-2.28-.63-6.38-6.33-6.38a14,14,0,0,0-7.24,2l-1.15-3.3A17.39,17.39,0,0,1,220,53.72c8.52,0,10.59,5.75,10.59,11.28V75.31a37.94,37.94,0,0,0,.46,6.61Zm-.74-14.07c-5.53-.12-11.8.85-11.8,6.21a4.46,4.46,0,0,0,4.78,4.78,6.92,6.92,0,0,0,6.73-4.61,5.24,5.24,0,0,0,.29-1.6Z"/><path class="cls-4" d="M238.73,63c0-3.25,0-6-.23-8.61h4.43l.18,5.42h.23c1.26-3.71,4.31-6,7.71-6a5.24,5.24,0,0,1,1.43.17v4.73a7.25,7.25,0,0,0-1.72-.17c-3.57,0-6.1,2.67-6.79,6.44a13.42,13.42,0,0,0-.23,2.33v14.7h-5Z"/><path class="cls-4" d="M265,46.43v7.91h7.25v3.82H265V73c0,3.42,1,5.36,3.8,5.36a11.39,11.39,0,0,0,2.93-.34l.23,3.76a12.44,12.44,0,0,1-4.48.68A7.05,7.05,0,0,1,262,80.38c-1.44-1.48-1.95-3.93-1.95-7.18v-15h-4.32V54.34h4.32v-6.6Z"/><path class="cls-3" d="M293.38,81.92l-.4-3.47h-.17a10.44,10.44,0,0,1-8.52,4.1c-5.63,0-8.51-3.93-8.51-7.92,0-6.67,6-10.31,16.74-10.26V63.8c0-2.28-.63-6.38-6.33-6.38a14,14,0,0,0-7.25,2l-1.15-3.3a17.43,17.43,0,0,1,9.15-2.45c8.51,0,10.58,5.75,10.58,11.28V75.31a38.94,38.94,0,0,0,.46,6.61Zm-.74-14.07c-5.53-.12-11.8.85-11.8,6.21a4.46,4.46,0,0,0,4.78,4.78,6.92,6.92,0,0,0,6.73-4.61,5.24,5.24,0,0,0,.29-1.6Z"/></g><g id="Mon"><path class="cls-1" d="M32.52,65.06c-.28-5.36-.61-11.8-.55-16.58H31.8C30.52,53,29,57.76,27.08,63.06l-6.6,18.63H16.82L10.77,63.4C9,58,7.49,53,6.44,48.48H6.33c-.11,4.78-.39,11.22-.73,17l-1,16.46H0l2.61-38.4H8.77l6.38,18.57C16.7,66.82,18,71,18.92,75h.17C20,71.15,21.37,66.94,23,62.09l6.66-18.57h6.16l2.33,38.4H33.46Z"/><path class="cls-4" d="M70.09,67.91c0,10.19-6.88,14.64-13.38,14.64-7.27,0-12.87-5.47-12.87-14.19,0-9.23,5.88-14.64,13.32-14.64C64.87,53.72,70.09,59.47,70.09,67.91Zm-21.31.28c0,6,3.38,10.6,8.16,10.6s8.15-4.5,8.15-10.71c0-4.68-2.27-10.6-8-10.6S48.78,63,48.78,68.19Z"/><path class="cls-4" d="M76.25,61.81c0-2.85-.06-5.19-.23-7.47h4.33l.28,4.56h.11a9.84,9.84,0,0,1,8.88-5.18c3.72,0,9.49,2.28,9.49,11.74V81.92H94.23V66c0-4.44-1.61-8.14-6.22-8.14A7,7,0,0,0,81.46,63a7.4,7.4,0,0,0-.33,2.33V81.92H76.25Z"/></g></g></g></svg>