<svg xmlns="http://www.w3.org/2000/svg" viewBox="0 0 508.84 131.2"><defs><style>.cls-1{fill:#b9e959;}.cls-2{fill:#1ad0c4;}.cls-3{fill:#fff;}.cls-4{fill:#fbca01;}</style></defs><title>Fichier 3</title><g id="Calque_2" data-name="Calque 2"><g id="logoV"><polygon id="Toit_2" data-name="Toit 2" class="cls-1" points="117.59 64.72 286.65 0 457.29 65.31 286.81 9.17 117.59 64.72"/><polygon id="Toit_1" data-name="Toit 1" class="cls-2" points="10.98 51.83 118.31 10.17 191.19 38.08 186.98 39.17 118.98 16.5 10.98 51.83"/><g id="by_Franck_Lablond" data-name="by Franck Lablond"><path class="cls-1" d="M303.89,113.4a.12.12,0,0,1,0,.11l-.11.83v.4l-.41.64-.47,1-.17.28a1,1,0,0,0-.37-.2l-.29.12,0,.4-.28,0,.3.17.06.17-.94.78-.77.55a3.32,3.32,0,0,1-1.08.6,6,6,0,0,1-1.2.71,4.67,4.67,0,0,1-1.21.31,15.69,15.69,0,0,1-1.75.08,10.37,10.37,0,0,1-1.94-.13,7,7,0,0,1-1.58-.55l-.17.28-.56-.23-.32.16a1.59,1.59,0,0,0-.76-.32l-.1-.16h-.24l-.86.08a1,1,0,0,1-.32-.33l-.49-.08.08.24-.25.17a1.27,1.27,0,0,1-.44.24.51.51,0,0,1-.27-.08l-.09-.47,0-.18.36-.26,1-.45.39-.58.21-.33.07-2.54.06-.28-.15-.39.28-.87-.23.08,0-.6a4.6,4.6,0,0,1,.11-.94l.22-.11.06-.1L289,111l.15-.47-.26-.66.13-1.09,0-.31h-.18l-.15-.46.07-.36-.11-.13,0-.2-.06-.76.06-.69-.11-.38.09-.25,0-.17,0-.19a.88.88,0,0,1-.14-.34c0-.1,0-.35-.07-.75l0-.39a.33.33,0,0,0,.2-.29l0-.19a1.52,1.52,0,0,1-.71-.31l-.45,0-.05-.13h-.12v-.19l.27-.25.73-.27.26-.25a.88.88,0,0,1,.63-.24l.47,0,.57,0,.31.1,2.08-.08.19.19.26.08.11-.11.47-.1,1.07.1,1.08.08A2.39,2.39,0,0,1,297,102l.24-.19.47.11.32.08h.39l.36.08c.45.3.67.52.67.68a1.52,1.52,0,0,1-.26.83l-.13.32-.21,0c-.2,0-.3.09-.3.28v.47l-.57.24-.45.44-1.23.68-.41.36v.14l.37.18.38.31.33.13.13-.1.83.26q0,.63.24.63a.61.61,0,0,0,.43-.21l.32,0a.73.73,0,0,1,.41.09.74.74,0,0,1,.23.3h.2l.19.19.21-.08,1.46.81v.28l.26.14c.4.18.6.38.6.57a1,1,0,0,1-.1.42c.2.23.35.35.45.35l.21-.09a2.16,2.16,0,0,1,.52,1.1c0,.06-.07.16-.2.28l.07.08,0,.27A2.11,2.11,0,0,1,303.89,113.4Zm-2.44.91v-.15l-.21-1.17c-.09-.59-.15-1-.19-1.14a.94.94,0,0,0-.28-.47,2.16,2.16,0,0,1-.33-.47l-.16-.39-.14-.21-.47-.15-.26,0a3.58,3.58,0,0,0-.7-.61l-1.91-.65-.35-.24-.6-.08-.45-.52a.59.59,0,0,0-.45-.2c-.11,0-.19.07-.24.22l-.28-.1,0,.18-.25,0-.26-.13-.63-.15h-.59l-.58-.13-.86-.08a1.64,1.64,0,0,0-.67.24l.15,1.12-.36.41,0,.42c.05.48.09.75.1.82a2,2,0,0,0,.2.38l-.06.74,0,.85.06.33a1.29,1.29,0,0,1-.19.74,1.23,1.23,0,0,0,.19.69l-.43.41,0,.55.37.16,0,.27.09.93.24.82c-.07.31-.41.49-1,.55l-.07.2a1.19,1.19,0,0,1,.79.43l.33.06,1,.19,1,.08,1.33.31,1.23-.07,1.67,0a1,1,0,0,0,.43-.11l.41-.16.43-.19.47-.44.71-.47a1.88,1.88,0,0,0,.6-.84l.37-.88.27-.39.09-.55Zm-4.88-11a4.37,4.37,0,0,0-1.84-.71l-.37,0-.3-.19-.3.06-1.31-.14-.58.08a4.8,4.8,0,0,0-1.48.3l0,.25.1,1-.4.66,0,.1,0,.11v.19l.51.14.06.3q0,.61,0,.75a1.28,1.28,0,0,1-.15.57,1.87,1.87,0,0,0,.56-.2l.15-.08,1,0,.09,0,.1,0,.15,0,.12,0,.34-.1a.75.75,0,0,0,.37.18.25.25,0,0,0,.21-.08l.45-.44,1.27-.39a2.59,2.59,0,0,0,1.07-1.07A2.93,2.93,0,0,0,296.57,103.32Z"/><path class="cls-1" d="M317.7,116.82l-.44,1.26v0l.05.2.26.33-.11.72.06,1-.13.33v1.42l-.18.47-.13.65-.21.44,0,.69-.45,1.15-.09.3-.38.24-1,1.3-.58.9a1.66,1.66,0,0,1-.66.68l-.33.2-.32.35-.39.25-.25.22-.56.16-.82.39-.81.3-1.16.35-1.21-.13-.66-.08a2,2,0,0,1-.79-.23l-.88-.58-.43-.1-.35-.5-.68-.43a1,1,0,0,1-.24-.74,1.74,1.74,0,0,1,.37-1.07.68.68,0,0,1,.49-.19l.17.39.13.37.51.72.48.82c.19.19.33.28.41.28h0l.19,0,1.09.46.89.06a.58.58,0,0,0,.34.14.66.66,0,0,0,.36-.18l.3,0a4,4,0,0,0,1.53-.46,4.13,4.13,0,0,0,1.09-.69l1-1,.6-.39a2.06,2.06,0,0,0,.56-1l.32-1.09.49-.77-.08-.57.23-1.07v-1.1a2.68,2.68,0,0,1,.25-1.12l.2-.74-.15-.62-.13-1.86,0-.31v-.13l.22-.71-.15-.2-.37.2-.45.26-.38.42-1.25.81-.64.63-1,.75a3.31,3.31,0,0,1-.64.38L310,120l-.47.19a1.9,1.9,0,0,1-.43.08,3.94,3.94,0,0,1-1.35-.33,3,3,0,0,1-1.14-.69,1.8,1.8,0,0,1-.5-1.33v-.28c.19-.13.28-.24.28-.35v0l0,0-.26-.39,0-.39.07-.35.51-1.2-.12-.47v-.17a3.87,3.87,0,0,1,.12-.66l.24-1c.05-.23.09-.46.13-.67l0-1,.24-1a.9.9,0,0,0-.18-.47l-.38-.06,0-.22.49-.58.3-.11.45-.13,1.29-.76h.08a.38.38,0,0,1,.31.16.66.66,0,0,1,.12.41v.08l-.42,1-.16,1-.32,1.54-.1.91a.3.3,0,0,1-.2.24l-.39.11a.3.3,0,0,0-.21.31c0,.21.17.32.52.32l-.37,2.77-.09.8.07.21.19.24.37.64.73.3.36.41.17.08H310l.41-.3,1.25-.43.53-.39.9-.65.86-.86.54-.35.25-.15.46-1.28.1,0,0-.24.29-.34-.12-.73.12-.2-.08-.58.09-.29-.22-1.18-.09-1.62-.38-.79a.59.59,0,0,1,0-.17v-.22l.55-.18.41-.39.75-.11.3-.08c.24.18.37.33.37.46V108l-.07.48.05,1-.11.39v.34l-.17.61,0,.2c.12.32.22.56.29.72a1,1,0,0,1,.1.37v.35l.06.86-.19.46a.79.79,0,0,0-.06.25,1.11,1.11,0,0,0,.43.76l0,.33Z"/><path class="cls-1" d="M341.46,105.82a.79.79,0,0,1-.08.28l-.42.48-.45.47a.7.7,0,0,1-.43.26h0l-.83-.13-1,0-.35-.18-.59,0-1.23-.11-.43,0-.36,0-.22-.28-.3.09-.53.3-.39.08-.47-.06-.76-.16h0l-.05,0-.73.13-1.08-.1-.72.1-.31.06a3.27,3.27,0,0,1-.14.8,5.65,5.65,0,0,0-.07.95v.44l.07,1,0,.71a1,1,0,0,1,0,.26l-.31,1.2.05.16c.21.06.32.15.32.27l-.13.36,0,.24.17.07,0,.1-.21.5.11.45-.05.58.2.88,0,1.46,0,.79a.45.45,0,0,1-.12.32,4.6,4.6,0,0,1-.48.31l-.24.13,0-.08a1,1,0,0,0-.56.23l-.19.19-.08,0-.15,0-.18,0-.3.06-.06-.63a.93.93,0,0,1,.08-.44.81.81,0,0,1,.28-.27l0-.2a1.35,1.35,0,0,1,.11-.35l-.24-.41.09-.27.17-2.36.11-.28-.13-.49.23-.82v-.39l-.13-.08v-.13l-.08-.08.06-.33-.08-.42v-.32a.43.43,0,0,1,.13-.28l0-.71-.21-.13.06-1.88a.49.49,0,0,0,.15-.4v-.2a.77.77,0,0,1-.27-.35,1.73,1.73,0,0,1-.07-.6l0-.41a1.17,1.17,0,0,0,.24-.6l0-.28-.28.09,0-.33.14-.55a2.35,2.35,0,0,0,.07-.6.82.82,0,0,0-.1-.48.68.68,0,0,0-.37-.21l.06-.57-.38-.18q0-.35.15-.42l.81-.23,1-.35,1.23,0a3.52,3.52,0,0,1,.94.17,2.15,2.15,0,0,0,.66.21h0l.57-.13.37.17.47,0,.71.13.49,0h1.89l2.92-.44h.37a1,1,0,0,1-.26.6,1.93,1.93,0,0,1-1.37.79h-.15l-3,0-.54-.13-1.46,0-.28-.13a1.74,1.74,0,0,0-.47,0l-.08.08-.05.13-.34,0-1.31-.1a1.63,1.63,0,0,0-.6.13l.17.13-.21.15.06.57c-.18.16-.26.27-.26.35a1.49,1.49,0,0,0,.18.52l.14.31-.14.71.36,0,.07.13.15,0,.38.1.79.06.44.25.17-.1,0-.15.51.09,1.44,0a7.21,7.21,0,0,1,1.31.16l.24-.16h.19l2.83-.07.61.12.83-.31.46,0,.83-.21Z"/><path class="cls-1" d="M351.12,108.44a.19.19,0,0,1,0,.12l-.75.6-.39.43-.24.09-.34-.23-.24-.24-.77,0-.73-.31-.28-.08a.76.76,0,0,1-.36.37,2.3,2.3,0,0,1-.73.07l-.43.19-.32-.11-.26.21-1,.83a2.55,2.55,0,0,0-.3,1.29l0,1-.28.19a1.81,1.81,0,0,1,.26.88H344l0,.38,0,1.72,0,.91-.06.82q-.39.24-.39.39a1.72,1.72,0,0,0,.09.24l.36-.08,0,.12.11.53v.07a.63.63,0,0,1-.2.41.68.68,0,0,1-.43.24l-.51.06-.77.41-.32-.2.06-.27.19-.77-.08-1,.08-.15h.26v-.16l0-.24-.17-.39,0-.55-.09-.46v-.39l0-.43a1.71,1.71,0,0,0,.11-.14l.16-.22c.07-.1.14-.22.22-.36l.13-.32,0-.14c-.4,0-.6-.09-.6-.28l.06-1-.08-1a.73.73,0,0,1,.15-.25v-.39l-.15-.16-.05-.32,0-.72-.28-.58a1.57,1.57,0,0,1,.41-.81l.81-.44.48-.32a1.05,1.05,0,0,1,.49.25.71.71,0,0,1,.13.48v.44c0,.33.07.5.21.5h.05l.66-.36.65-.26,1.11-.63.37-.16.28.08.58-.18a2.68,2.68,0,0,1,.77-.16l.56,0c.18.25.32.37.43.37l0,0h.05l.3-.16a.29.29,0,0,1,.15-.06,1,1,0,0,1,.8.82Z"/><path class="cls-1" d="M363,118.74l-.13.25-.21.32-.37.15-.55.29-.48.16a2.88,2.88,0,0,1-.56.2.21.21,0,0,1-.18-.1.26.26,0,0,1-.09-.18,3.66,3.66,0,0,1,.13-.6,1.9,1.9,0,0,0,.1-.47l-.25.18-1.16.4a1.65,1.65,0,0,1-.71.17h-.52l-.6.3-.41,0-1.22.25-.49-.08-.33.14-.27,0-.37,0-.86-.18-.58-.06a2,2,0,0,1-1-.42,2.06,2.06,0,0,1-.64-.87l-.35-.14-.08-.33,0-.24-.18-.63.48-1,.15-.44a1.64,1.64,0,0,1,.49-.51l1-.86.43-.16.71-.3h.06l.07,0a1,1,0,0,1,1-.57l.07-.08h.26a1.12,1.12,0,0,1,.34-.3,3.13,3.13,0,0,1,.64-.17l1.61-.3.48.06.6-.14,1.09-.12c.37-.09.56-.27.56-.54a.1.1,0,0,0,0-.09l-.13-.6.11-.87a.58.58,0,0,0-.19-.4.92.92,0,0,0-.46-.17l-.19-.31a2.36,2.36,0,0,0-.46-.62,1.79,1.79,0,0,0-.68-.25l-.75-.17-.71,0-.34,0a.59.59,0,0,1-.18-.13.69.69,0,0,1-.1-.24l-.35.16-.4.39-1.27.65a1.56,1.56,0,0,0-.53.45l-.18.26a.4.4,0,0,1-.36.22l-.24-.06-.38-.18-.41-.08a1.43,1.43,0,0,1-.38-.23c-.13-.11-.2-.21-.2-.3s0-.08,0-.08l.21-.16.41-.33.45-.08.69-.36.86-.3.23,0,.56-.31.45.08,1.55-.34.67,0h.49l.54.19,1.54.31.22.13v.19l-.17.1c.05.32.16.47.32.47l0,0h0l.35-.16h.06a.16.16,0,0,1,.17.13l.26.49.26.22v.31l0,.68a.94.94,0,0,0,.42.76l.17,2-.36.49.39.49,0,.17-.07,1.26.09,1v.52l-.19.05.05.43a.88.88,0,0,0,.09.28,4.4,4.4,0,0,1,.18.42ZM361,116.41a.91.91,0,0,1-.24-.3l0-.54-.11-1.23.15-.36-.41-.25-.21.06-1.2-.08-.56,0-.41-.3-.26.16-.71,0-.51.2-.3-.17-.35.23-1.95,1-.41.32-.34.52-.47.28a.4.4,0,0,0-.09.24.14.14,0,0,1,0,.06l.11.16,0,.12.3,1.2-.3.77.21.26.35-.43.34.27a1.42,1.42,0,0,0,.37.18l.57.16.26.37.9.09.24-.25.26.13.17-.1.15-.08a2.06,2.06,0,0,0,.36.1,2.12,2.12,0,0,0,1-.37l.1-.06.2-.11a1.85,1.85,0,0,0,1.53-.5l.26-.35.64-.54,0-.17,0-.17a.42.42,0,0,0,.24-.16A.79.79,0,0,0,361,116.41Z"/><path class="cls-1" d="M377.4,118.74l-.13.38-1.78.89a1.83,1.83,0,0,1-.35-.61v-.06l.3-1.29,0-.57.09,0,.22-.27a.8.8,0,0,0-.17-.28,1.22,1.22,0,0,0-.31-.16l-.06-.22.23-2.5-.14-.35,0-.44v-1l.15-.5-.22-.24,0-.8a2.35,2.35,0,0,0-.47-.84v-.14a.3.3,0,0,0-.11-.25l-.32,0-.66-.41-1.06.06-1.22-.09a1.27,1.27,0,0,0-.34.33l-.24-.05-1,.19-.36.08-.45.36-.58.27a.79.79,0,0,0-.48.64l0,1.31-.17.82.28.8v.43l0,1.59-.24.55,0,.2v.08l.24.42.08,1.46.09.47a.47.47,0,0,1-.28.39l-.84.21-.24.06c-.14.24-.27.36-.4.36a.41.41,0,0,1-.28-.15s0,0,0,0l0-.06c0-.07,0-.1,0-.08l.19-1,0-1.12.13-.46-.09-.74.05-.82,0-1.73c0-.23.15-.36.45-.38a.57.57,0,0,0-.13-.37.8.8,0,0,0-.43-.07l0-2.41.28-.19-.15-.28-.36-1-.22-.3.15-.3.26-.33.47-.22.45-.36a.79.79,0,0,1,.48-.16.67.67,0,0,1,.33.1.33.33,0,0,1,.18.22l0,1.26.05.41.25-.08a7.07,7.07,0,0,1,1.09-1.1,1.87,1.87,0,0,1,1-.51c.1,0,.18.09.26.28a2.88,2.88,0,0,0,.6-.31,1.36,1.36,0,0,1,.64-.21h.07l1.07.1.39-.13,1.2.16a1.54,1.54,0,0,1,1,.44l.19,0a.79.79,0,0,1,.67.38l.19.33.26.44a1.67,1.67,0,0,1,.19,1v.75l.06.32-.32.41.11.34.15.29v.55a.57.57,0,0,1,0,.16l-.19.39a1.1,1.1,0,0,0-.05.39l.26.35,0,.38,0,.94v.11l.21.52,0,1.2Z"/><path class="cls-1" d="M391.63,117.1a.3.3,0,0,1,0,.14l-.15.68v0a.25.25,0,0,0,0,.07l-.56.71-.32.09-.5.35-.21,0-.58.31h-.06l-.82,0a1.39,1.39,0,0,0-.6.19l-.67.39-1,.08-1-.08-.23-.2-.76-.11-.87-.24-1.17-.28-.57-.5-.5-.53.17-.47a1.32,1.32,0,0,1-.47.11h-.1l-.24-.28L380,117l-.16-.24-.1-.76.11-.39-.11-.21-.26-.31.17-.68-.08-1.23.47-.81.54-1.17.73-.63,1.3-1.29L383,109l.51-.37.22-.08.54-.42,1.67-.54.39-.11h0l0,0,.65.29.66-.19,1.25.22,1.05-.16a2.07,2.07,0,0,1,.43.16,1.33,1.33,0,0,1-.22.56,1.73,1.73,0,0,1-.51.32l0,.29-.52.34-.37.18h-.06l-.34,0-.45,0-2-.32-.3,0-.26,0-1.09.22H384a1.47,1.47,0,0,0-.88.71l-.54.2-.24.55-.45.08a.35.35,0,0,1,.05.18l-.52,1.07-.06.47,0,.82a7.28,7.28,0,0,0,.1,1,2.72,2.72,0,0,0,.28.78l-.11.31a.94.94,0,0,0-.14.29.43.43,0,0,0,.08.2l.37.11a2.21,2.21,0,0,1,.4.49l.35.5.05.12.08.17h.28l.17.23.84.63.38.32.41.13.38.15.58,0,1.49.16a.11.11,0,0,0,.06,0,3,3,0,0,0,.92-.38l.24.09.88-.64a1.62,1.62,0,0,0,.69-.3,5.82,5.82,0,0,0,.9-.85.47.47,0,0,1,.32-.22.27.27,0,0,1,.19.08A.29.29,0,0,1,391.63,117.1Z"/><path class="cls-1" d="M406.31,118.5a2,2,0,0,1-.3.73l-.06.11a1,1,0,0,1-.71.61l-.69.08-.26.16a.28.28,0,0,1-.13,0,.44.44,0,0,1-.19,0l-.53-.18-.8-.23-.66-.3-.26-.17,0-.35c0-.22-.16-.33-.49-.33H401l-.07.17-.28-.17-1.69-1.45-.41-.14-2.1-1.78a.27.27,0,0,0-.16-.05.19.19,0,0,0-.15.08.32.32,0,0,0-.08.2v0l.3,3.59a.52.52,0,0,1-.18.35.71.71,0,0,1-.32.22l-.88.22-.34.22-.3.14a.71.71,0,0,1-.17-.39v-.13l.23-1.62-.14-2.68.29,0a.69.69,0,0,0,.14-.35,1.35,1.35,0,0,0,0-.2c-.26-.14-.4-.27-.4-.42a3.43,3.43,0,0,1,.38-.88q0-.18-.36-.24v-.39l0-1.28,0-.86.05-1a.61.61,0,0,0,.25-.21.75.75,0,0,0,0-.36l-.31-.06-.06-3.81c.21-.1.32-.23.32-.39a1.72,1.72,0,0,0-.06-.44l-.26-.21v-.58l-.19-1.44.13-1.35-.13-.55-.11-.08,0-.39-.19-1.58,0-1.51-.09-.36.13-.89-.11-.23a.71.71,0,0,1,.12-.2L394,95s.25-.21.71-.58l.26-.23a.86.86,0,0,0,.38-.1l.24-.19.19.11v.21h-.1l-.11.72.08,2.25-.06,1.23a6.72,6.72,0,0,0,.09,1l-.24.21,0,1.18.1.24.28,0,0,.21,0,.85.09.57,0,.26,0,1,0,1.89v1.28l-.13.86v.16a.64.64,0,0,0,.06.33l.28.51a.09.09,0,0,0,0,0v0l-.1.79v.14l.1,1.61V112l0,.63-.11.89v0a2.06,2.06,0,0,0,.13.58l.16-.08.58-.5.83-.57,1.7-1.84,1.67-1.72.8-1a4.63,4.63,0,0,1,1.3-1l.35.26c.23.17.34.31.34.42a1.9,1.9,0,0,1-.56,1l-.27.08a1,1,0,0,0-.35.17,1,1,0,0,0-.17.33,1.74,1.74,0,0,0-.77.16v.32a.64.64,0,0,1-.18.52l-.77.6-.34.31-.19,0H400a1.2,1.2,0,0,1-.19.53l-.56.33-.45.46-.41.33a.67.67,0,0,0-.38.55q0,.31.51.63a5.86,5.86,0,0,1,1.57,1.17l.41.86a1.46,1.46,0,0,0,.73.45l.34-.21,1.57.71a.28.28,0,0,1,.19.25l0,.16.53.34.2-.2.58.2.36.16h.35a.7.7,0,0,1,.34.11.5.5,0,0,1,.36-.19.29.29,0,0,1,.17,0A.17.17,0,0,1,406.31,118.5Z"/><path class="cls-1" d="M428.55,118.19l-.17.25-.28.19-.26.28.13.29c-.23.24-.39.37-.51.37l-.54.05-.36.24-.29.09h0l-.7-.12-1.78.08-1.66-.16-1.29.08a1,1,0,0,1-.64-.16l-.34-.19-.3,0v.3a2.39,2.39,0,0,1-.65.13,6,6,0,0,1-1-.13l.06.1-.42,0-.16,0a.84.84,0,0,1-.21-.15l-.24,0v.08l-.35.08-1.69.2-.28,0c-.21,0-.31-.08-.31-.25v-.24l.48-.2v-.19l.19-.13a2.41,2.41,0,0,1,.11-.69,1.16,1.16,0,0,1,.34-.41l-.1-.39,0-1.36,0-.36.27-.43-.3-.23.18-.44.1-.4.15-.33-.19-.39.06-.3-.06-.22,0-.38-.08-.41.1-1v-.6l.24-.52.08-.3-.32-.13-.1-1.49a.41.41,0,0,0,.3-.24l-.13-.69-.26-.06a8.9,8.9,0,0,1-.19-2,2.81,2.81,0,0,1,.13-.85l-.13-.3-.07-.77-.17-.32h-.15l-.21-.37.27-.24.31-.13.38-.33.73-.25.2-.14.29-.08.28.1h.16v.18l.08.08,0,1,0,.47a.64.64,0,0,1-.06.33.77.77,0,0,1-.18.19l-.08.28.08.09.18,0v.16l-.09.08.17.55v0l-.08.86.08.76v.28l-.1,1.06H417a1.55,1.55,0,0,0-.11.44.49.49,0,0,0,.33.52l0,.31,0,2.1a5.33,5.33,0,0,1-.18,1.51l-.12-.08a.63.63,0,0,0-.13.27l.06.23.28.08.07.44v.4l0,0-.06,1.33,0,.4c-.14.12-.2.22-.2.3s.06.16.2.27l0,.78L417,118a.57.57,0,0,0,.25.52,1.47,1.47,0,0,0,.78.16,8.38,8.38,0,0,0,.86-.08l.07.11.3,0,.43.2.28,0c.11,0,.21-.11.3-.28l1.61.09,1,0,1.09-.13.19,0v.28a2.53,2.53,0,0,0,.6.16,2,2,0,0,0,.41-.08.51.51,0,0,1,.06-.28,1.19,1.19,0,0,1,.27-.19l.21,0a2.18,2.18,0,0,0,.77-.22.94.94,0,0,0,.22.2.46.46,0,0,0,.21,0,1.09,1.09,0,0,1,1-.49Z"/><path class="cls-1" d="M441.54,116.9a.75.75,0,0,1-.06.31l-.26.47-.6,1.08-.56,0-.35.3a.71.71,0,0,1-.4.16l-2.32.47-.35.13-.85-.08-1.18.11-1.34-.08h-.38a3.35,3.35,0,0,0-.35-.27l-1.26-.47-.43-.41-.84-.61-.67-.92-.25-.23a1.35,1.35,0,0,0,.15-.57.23.23,0,0,0-.05-.16l-.36-.58-.07-.76,0-.61a3.05,3.05,0,0,1,.15-.82,2.59,2.59,0,0,1,.35-1l.47-.63.24-.58.62-.6.66-.89.58-.34.84-.6.56-.39.19-.13.39-.08,1.18-.39.92-.11.54-.24.28,0a1.29,1.29,0,0,1,1.11.73.42.42,0,0,0,.35-.28l.36.31.47.26,1.08,1.1a5,5,0,0,1,.32.46l.22.41a2.89,2.89,0,0,1,.2.47c.06.17.14.43.25.77l.1.34-.12,0-.5-.1-.56.18-.43-.08-.47.14-.92-.11-.86,0-.9-.16-1.48,0-.71,0-1.76.24-.62,0-.88.26-.31.07-.06.32a.7.7,0,0,1-.37.74l0,.25a1.83,1.83,0,0,1,.45.42l.34,1.36.17.33a.36.36,0,0,0-.13.24.14.14,0,0,1,0,.06l.48.16.13.33c.09.32.2.51.34.58l.69.29.23.52a1.6,1.6,0,0,0,.58.15l.18.35.4.05,1.12.42.92-.19,2.45-.41.54-.34.83-.52.69-.92a.48.48,0,0,1,.41-.23C441.39,116.49,441.54,116.63,441.54,116.9Zm-3-6.3a2.25,2.25,0,0,0-.49-.89l-.9-.67-.28-.32-.43,0-1-.08-.23.06-.56.32-.71.17-.9.35-.35.13-.41.64a3.38,3.38,0,0,0-.42.35l0,.16,1.59.12.17,0,.3-.1.28.07.77.16h0l.86-.16.28-.07.21.31h.3l1.12-.24.47,0C438.4,110.89,438.51,110.78,438.51,110.6Z"/><path class="cls-1" d="M457.3,112.88a3.43,3.43,0,0,1-.63,1.78l-.19-.06a.9.9,0,0,0-.22.52,2.36,2.36,0,0,0,.07.55l-.07.14-.06.3-.3.35-.52.75-.64.4-1.39,1.33-.59.32-1.13.47-1,.22-1.14.19h0l-.8-.23h-.57l-1.68-.45-1.07-.08-.65-.23-1.18.5-.17,0-.17,0,0-.29,0-.34.34-.3c.26-.19.4-.33.41-.43L444,118l.21-.32,0-1.51a.66.66,0,0,1,.14-.36.54.54,0,0,1,.38-.11l.08-.41,0-.22-.51-.21,0-.18.07-1.94,0-.73.13-.23.21,0,0-.32-.36-.28,0-.19,0-.16.06-.36-.19-1.15,0-1,0-.57a.08.08,0,0,1,0-.08l.22-.44a.25.25,0,0,0,.06-.19.8.8,0,0,0-.32-.57v-.45l0-2.35-.07-.36.09-1.47-.09-.76v-.55l.35-.58-.15-.33a1,1,0,0,1-.16-.44l0-.22c.31-.15.47-.32.47-.52s-.16-.39-.47-.41l-.24-.63.19-1.42-.25-.52a1,1,0,0,1-.2-.42l.33-.26.53-.42.67-.2.49-.24a.49.49,0,0,1,.28-.08.57.57,0,0,1,.36.13.4.4,0,0,1,.16.31,2.58,2.58,0,0,1-.22.68l-.15.27a1.11,1.11,0,0,1,.32.55v0l-.15.61,0,.6-.19.52.15,1.64-.34.55a.73.73,0,0,0-.07.31.12.12,0,0,0,0,.11l.41.6-.19,2.11.19,1.15c0,.22-.13.37-.4.47l-.31.11v.44a.8.8,0,0,0,.11.4,1.88,1.88,0,0,0,.4.31l0,.29.09.94a1.37,1.37,0,0,1-.09.44l-.36.84c0,.12.14.24.41.36a.74.74,0,0,0,.3.08c.19,0,.41-.14.66-.44a1.65,1.65,0,0,0,.37.08,3.14,3.14,0,0,0,.9-.24l1.2-.41c.11.22.25.33.41.33a1.53,1.53,0,0,0,.43,0l.06-.28.32,0,.65,0a.39.39,0,0,1,.32.2,6.84,6.84,0,0,1,1.55.16,2.24,2.24,0,0,1,.92.34,1.08,1.08,0,0,1,.34.7l.39.08c.09-.17.19-.25.32-.25s.11,0,.13.05l.23.31.37.36.24.57.43.46.12.23.17,1,.24.52A1.36,1.36,0,0,1,457.3,112.88Zm-2.24,1.31-.19-1.73,0-.45c0-.19,0-.3-.09-.34l-.55-.38-.24-.5a2.22,2.22,0,0,0-.71-.6l-1-.6-.66-.35-1.74-.17-1-.19a1.39,1.39,0,0,0-.65.13l-1.24.75-.88.5a.86.86,0,0,0-.13.45l.09,1.15.08.8v.3l0,.28-.32.63.38,1.17-.12.66.08,1.83v.11a1.19,1.19,0,0,0-.41.55c.21.22.38.33.5.33l.92.06.43.18H448l.52.2.36.11,0,.11.32-.14h.19l1.18.06.95-.27a2.52,2.52,0,0,0,1.54-.75l.6-.65L454,117l.47-1,.31-.63.14-.91Z"/><path class="cls-1" d="M462.25,117.27l0,.7,0,.55a.42.42,0,0,1-.19.34l.07.32-.28,0-.86.55-.33,0-.4.26h-.09l-.09,0c-.17,0-.25,0-.25-.16v-.33l-.07-.6.17-1.46.07-1.86a2.71,2.71,0,0,1,.28-1.12l-.15-.42a1.8,1.8,0,0,1-.22-.48,1.9,1.9,0,0,1,.32-.77.9.9,0,0,0,.13-.45c0-.12-.13-.24-.4-.34l.06-.23-.11-.06v-.4l.22-.93v-2.3l.26-1.07c0-.15-.1-.3-.31-.47V106l-.06-2.41a2.4,2.4,0,0,1,.34-.91l.2-.34c-.32-.16-.48-.29-.48-.42,0,0,0-.14.07-.52l-.26-.24v-.52l-.06-.63v-.12l.23-.68-.23-.95.06-.47-.26-1.57V96l.09-.44.09-.55L461,94.4l.53-.42.22,0,.17.29,0,.58.09.38,0,.23v.32l-.09,1v.08l0,.47a.78.78,0,0,1-.05.35l-.3.69-.06.27a.55.55,0,0,1,.34.09s.07.17.07.38v.29a.52.52,0,0,1-.31.45v.33l0,.27v.1l.22.39-.09,2.56v1.83l-.36.71.21,1-.28.66a.89.89,0,0,0,.22.31l.23.24.11,4.33-.34.38a2.29,2.29,0,0,1,.06.54,3.19,3.19,0,0,1-.13.89l.13.29H462v.49Z"/><path class="cls-1" d="M479,112.85l-.28,0,.06.31-.3.21a.87.87,0,0,0,.1.29,1,1,0,0,0,.24.18l0,.27a6,6,0,0,1-1.08,3.15,7.37,7.37,0,0,1-.61.79c-.24.28-.4.46-.46.55l-.39.11-2.44,1.17-1.34.06-1,.25-1.16,0-.41.11-1.16-.21-.47,0-.26-.31-.73-.1-.34-.19-.73-.58-.38-.31a.7.7,0,0,1-.14-.16l-.28-.57-.4-.33-.31-.85-.12-.33.15-.11a.47.47,0,0,1,.05-.25.5.5,0,0,1,.23-.14l-.07-.21-.43-.28v-.55a4.92,4.92,0,0,1,.13-1.14,8.39,8.39,0,0,1,.45-1.29,4,4,0,0,1,.75-1.34l.52-.36.28-.52a.92.92,0,0,1,.38-.38l1.21-.67.7-.57.82-.32,1.44-.52,1.22-.11.94,0c.53,0,.8.15.8.46.14.13.23.2.28.2s.27-.13.43-.39l.32.08.84.31.34.29.49.31.46.76a1,1,0,0,0,.77.26,2.77,2.77,0,0,1,.51,1,14.69,14.69,0,0,1,.28,1.72Zm-1.87.34-.49-1.54-.07-.68-.13-.26h-.08a.29.29,0,0,1-.16,0,.51.51,0,0,1-.15-.15l-.64-.81-.21-.34-1.08-.52a2.35,2.35,0,0,0-.26-.39.35.35,0,0,0-.27-.13,2,2,0,0,0-.52.13,1.81,1.81,0,0,0-.54-.16l-.38.06-.63,0-.87.34-.2-.19-.17.22-.88.54-1.61,1.45-.3.28a4.74,4.74,0,0,1-.6,1.56l-.19.33v.1a.58.58,0,0,1-.09.39.61.61,0,0,1-.35.13,1.24,1.24,0,0,1-.06.2l0,0a.1.1,0,0,0,0,0l.39.47.06.3c-.28.23-.42.38-.42.46l.06.17a.31.31,0,0,1,.22-.14.14.14,0,0,1,.15.08l.3,1,.66,1.13-.08.68a.34.34,0,0,0,.23.1.51.51,0,0,0,.34-.16l.24.08,1.57,1,1.59.16.9.14,1-.19.67-.16.83-.88.62-.19.3-.33.67-1.48.36-.3a.53.53,0,0,0,.18-.32v-.07l-.2-.63Z"/><path class="cls-1" d="M492.78,118.74l-.13.38-1.78.89a1.65,1.65,0,0,1-.35-.61v-.06l.29-1.29,0-.57.09,0,.23-.27A.67.67,0,0,0,491,117a1.06,1.06,0,0,0-.31-.16l-.05-.22.22-2.5-.13-.35,0-.44v-1l.15-.5-.23-.24,0-.8a2.18,2.18,0,0,0-.46-.84v-.14a.28.28,0,0,0-.12-.25l-.32,0-.65-.41-1.07.06-1.21-.09a1.14,1.14,0,0,0-.34.33l-.24-.05-1,.19-.35.08-.45.36-.58.27a.8.8,0,0,0-.49.64l0,1.31-.17.82.29.8v.43l0,1.59-.25.55v.28l.24.42.07,1.46.1.47a.51.51,0,0,1-.08.21.49.49,0,0,1-.2.18l-.85.21-.24.06q-.21.36-.39.36a.41.41,0,0,1-.28-.15.08.08,0,0,0,0,0,.17.17,0,0,0-.06-.06c0-.07,0-.1,0-.08l.18-1,0-1.12.13-.46-.1-.74.06-.82,0-1.73c0-.23.15-.36.45-.38a.63.63,0,0,0-.13-.37.83.83,0,0,0-.43-.07l0-2.41.28-.19-.15-.28-.35-1-.23-.3.15-.3.27-.33.46-.22.45-.36a.82.82,0,0,1,.49-.16.7.7,0,0,1,.33.1.34.34,0,0,1,.17.22l0,1.26.06.41.24-.08a7.15,7.15,0,0,1,1.1-1.1,1.85,1.85,0,0,1,.94-.51c.1,0,.19.09.27.28a2.61,2.61,0,0,0,.59-.31,1.4,1.4,0,0,1,.64-.21h.08l1.06.1.4-.13,1.19.16a1.59,1.59,0,0,1,1,.44l.19,0a.79.79,0,0,1,.67.38l.19.33.26.44a1.76,1.76,0,0,1,.19,1v.75l0,.32-.32.41.12.34.15.29v.55a.57.57,0,0,1,0,.16l-.19.39a.87.87,0,0,0-.06.39l.27.35,0,.38,0,.94v.11l.21.52v1.2Z"/><path class="cls-1" d="M508.84,119.15l0,.28-.28.08-.88.16-.93.08a2.85,2.85,0,0,0-.13-.69.51.51,0,0,0-.23-.23.85.85,0,0,1-.25.17l-.31.13-.34.15c-1,.54-2.79.81-5.41.81a3,3,0,0,1-1.1-.15.91.91,0,0,1-.51-.51.54.54,0,0,0-.37.22l-.41-.14a1,1,0,0,0-.11-.37.57.57,0,0,0-.31-.2l-.16.16a1.69,1.69,0,0,1-.63-.28,6.46,6.46,0,0,1-.72-.74,1,1,0,0,0,.05-.32.66.66,0,0,0-.26-.55l-.37-.36,0-.27-.22-1v-.23a3.28,3.28,0,0,1,.16-1v-.28l.14-.32.81-2c.12-.29.29-.43.51-.43h0l.41,0,.17-1.13.51-.41.52-.63.38-.25.22-.22a.86.86,0,0,1,.28-.1l.28,0a.86.86,0,0,1,.33.06.65.65,0,0,1,.2.24,1.1,1.1,0,0,1,.65-.46l0-.41.38-.16.64-.21.33-.1.47,0,.6-.22.28.19a1.8,1.8,0,0,0,.28.13l0,.14c.1.08.16.12.19.12s.17-.13.3-.39l.69.16a5.43,5.43,0,0,1,.94.27.94.94,0,0,1,.37.33l.77,0-.1-.26-.15-.23-.07-1-.08-.28.1-.68-.1-1.86,0-.2.43-.16-.19-.27-.05-.36-.19-.6a2,2,0,0,1-.09-.66v-.16l.13-1.9L506.3,99l.07-.36a.33.33,0,0,0,.28-.27l-.17-.17A1,1,0,0,1,506,98v-.33l-.11-.82,0-.91a.6.6,0,0,0-.28-.45c.07-.33.21-.51.41-.55l.79-.18.54-.34.58-.14.28-.09a1.08,1.08,0,0,1,.26.69l0,.32-.13.71,0,.39-.06,1.18v1l-.15.57,0,1.23a1.45,1.45,0,0,1-.3.55l.38,1.13-.08.29v.64l-.09.27.09.91a1.83,1.83,0,0,1-.09.49h-.3a3,3,0,0,0-.11.6c0,.06,0,.09,0,.11l.44.66,0,1,.09,1.12-.06.46,0,.2,0,.27-.18.22.07,1.26,0,.9.1.85v.58l.09.65v1l.19,1,0,.84.17.6v1a1.05,1.05,0,0,1,.23.53A3.62,3.62,0,0,1,508.84,119.15Zm-2.09-5.51-.14-.84c-.21-.08-.31-.19-.31-.34v0l.11-.58-.08-1v-.27l-.13-.3,0-.32c0-.13-.05-.19-.15-.19a.08.08,0,0,1-.09-.07l-.53.12-.13,0-.18,0-2.4-.6-.88,0h-.28q-.13,0-.15,0l-.45.19h-.58l-.77.52-.52.08-.38.27-.52.49a1.62,1.62,0,0,0-.38.58l0,.33-.51.55-.54.82a2,2,0,0,0-.21.74,1.29,1.29,0,0,0,.1.53l.09.24.28,1.09.3.55,0,.3v.17l.32.13a6.56,6.56,0,0,0,.77.89,3.69,3.69,0,0,0,.84.62l.58.27.2.11.38.05h.34l.72.28h.83l1.29,0a3.82,3.82,0,0,0,1-.21,6.76,6.76,0,0,0,.91-.34l.6-.52.28-.36-.13-.35.08-.36,0-.39,0-.55-.06-.6,0-.08,0-.44-.1-.6,0,0C506.17,113.85,506.36,113.71,506.75,113.64Z"/></g><g id="_.com" data-name=".com"><path class="cls-3" d="M446.46,80.62a1.89,1.89,0,0,1,1.91-2,2,2,0,0,1,0,4A1.89,1.89,0,0,1,446.46,80.62Z"/><path class="cls-3" d="M464.65,81.71a10.27,10.27,0,0,1-4.41.9c-4.64,0-7.65-3.17-7.65-7.9a7.83,7.83,0,0,1,8.25-8.22,9.16,9.16,0,0,1,3.87.8l-.63,2.17a6.49,6.49,0,0,0-3.24-.73c-3.52,0-5.43,2.62-5.43,5.85,0,3.58,2.29,5.79,5.34,5.79a7.88,7.88,0,0,0,3.42-.77Z"/><path class="cls-3" d="M481.63,74.42c0,5.72-3.93,8.22-7.65,8.22-4.15,0-7.36-3.07-7.36-8,0-5.18,3.36-8.21,7.62-8.21S481.63,69.69,481.63,74.42Zm-12.19.16c0,3.39,1.94,6,4.67,6s4.67-2.53,4.67-6c0-2.62-1.31-5.94-4.61-5.94S469.44,71.64,469.44,74.58Z"/><path class="cls-3" d="M485.16,71c0-1.6,0-2.91-.13-4.19h2.44l.13,2.49h.1a5.27,5.27,0,0,1,4.82-2.84,4.53,4.53,0,0,1,4.35,3.1h.06a6.31,6.31,0,0,1,1.72-2A5.21,5.21,0,0,1,502,66.46c2,0,5,1.34,5,6.71v9.12h-2.73V73.52c0-3-1.08-4.76-3.33-4.76a3.61,3.61,0,0,0-3.3,2.56,4.51,4.51,0,0,0-.23,1.4v9.57h-2.73V73c0-2.46-1.08-4.25-3.2-4.25a3.82,3.82,0,0,0-3.46,2.81,3.92,3.92,0,0,0-.22,1.38v9.34h-2.73Z"/></g><g id="Miami"><path class="cls-1" d="M336.86,65.06c-.28-5.36-.61-11.8-.55-16.58h-.17c-1.27,4.5-2.82,9.28-4.69,14.58l-6.57,18.63h-3.64l-6-18.29C313.46,58,312,53,310.92,48.48h-.11c-.11,4.78-.39,11.22-.72,17l-1,16.46h-4.58l2.59-38.4h6.13l6.34,18.57c1.55,4.73,2.82,9,3.75,12.94h.17c.94-3.88,2.26-8.09,3.92-12.94L334,43.52h6.13l2.32,38.4H337.8Z"/><path class="cls-3" d="M355.79,46.6a3,3,0,1,1-6,0,3,3,0,0,1,3-3.14A2.94,2.94,0,0,1,355.79,46.6Zm-5.41,35.32V54.34h4.86V81.92Z"/><path class="cls-3" d="M378.09,81.92l-.39-3.47h-.17a9.86,9.86,0,0,1-8.16,4.1,7.73,7.73,0,0,1-8.17-7.92c0-6.67,5.74-10.31,16.06-10.26V63.8c0-2.28-.61-6.38-6.07-6.38a13,13,0,0,0-7,2l-1.1-3.3a16.2,16.2,0,0,1,8.77-2.45c8.17,0,10.16,5.75,10.16,11.28V75.31a40.15,40.15,0,0,0,.44,6.61Zm-.72-14.07c-5.3-.12-11.32.85-11.32,6.21,0,3.25,2.1,4.78,4.58,4.78a6.66,6.66,0,0,0,6.46-4.61,5.23,5.23,0,0,0,.28-1.6Z"/><path class="cls-3" d="M389.9,61.81c0-2.85-.06-5.19-.22-7.47h4.25l.22,4.45h.16a9.18,9.18,0,0,1,8.39-5.07,7.92,7.92,0,0,1,7.56,5.52h.11a11.34,11.34,0,0,1,3-3.58,8.9,8.9,0,0,1,5.91-1.94c3.53,0,8.77,2.39,8.77,12V81.92h-4.74V66.31c0-5.3-1.88-8.49-5.8-8.49a6.33,6.33,0,0,0-5.74,4.56,8.49,8.49,0,0,0-.38,2.51v17h-4.75V65.4c0-4.39-1.88-7.58-5.57-7.58-3,0-5.25,2.51-6,5a7.07,7.07,0,0,0-.39,2.45V81.92H389.9Z"/><path class="cls-3" d="M441.34,46.6a3,3,0,1,1-6,0,3,3,0,0,1,3-3.14A2.94,2.94,0,0,1,441.34,46.6Zm-5.41,35.32V54.34h4.85V81.92Z"/></g><g id="Apparta"><path class="cls-1" d="M117,69.84l-4,12.08h-5.18l13.17-38.4h6l13.24,38.4h-5.35L130.7,69.84ZM129.67,66l-3.8-11.06c-.86-2.5-1.44-4.78-2-7h-.12c-.57,2.28-1.2,4.61-1.95,7L118,66Z"/><path class="cls-3" d="M145.55,63.35c0-3.54-.12-6.38-.23-9h4.54l.23,4.73h.12a11,11,0,0,1,9.89-5.35c6.73,0,11.79,5.64,11.79,14,0,9.92-6.1,14.82-12.65,14.82a9.79,9.79,0,0,1-8.57-4.33h-.12v15h-5Zm5,7.35a11.68,11.68,0,0,0,.23,2,7.8,7.8,0,0,0,7.59,5.87c5.35,0,8.46-4.33,8.46-10.66,0-5.52-2.93-10.25-8.28-10.25a8.05,8.05,0,0,0-7.65,6.21,7.65,7.65,0,0,0-.35,2Z"/><path class="cls-3" d="M178.28,63.35c0-3.54-.12-6.38-.23-9h4.54l.23,4.73h.12a11,11,0,0,1,9.89-5.35c6.73,0,11.79,5.64,11.79,14,0,9.92-6.09,14.82-12.65,14.82a9.79,9.79,0,0,1-8.57-4.33h-.12v15h-5Zm5,7.35a11.68,11.68,0,0,0,.23,2,7.8,7.8,0,0,0,7.59,5.87c5.36,0,8.46-4.33,8.46-10.66,0-5.52-2.93-10.25-8.28-10.25a8.05,8.05,0,0,0-7.65,6.21,7.65,7.65,0,0,0-.35,2Z"/><path class="cls-3" d="M226.42,81.92l-.4-3.47h-.17a10.4,10.4,0,0,1-8.51,4.1c-5.64,0-8.52-3.93-8.52-7.92,0-6.67,6-10.31,16.74-10.26V63.8c0-2.28-.63-6.38-6.33-6.38a14,14,0,0,0-7.24,2l-1.15-3.3A17.39,17.39,0,0,1,220,53.72c8.52,0,10.59,5.75,10.59,11.28V75.31a37.94,37.94,0,0,0,.46,6.61Zm-.74-14.07c-5.53-.12-11.8.85-11.8,6.21a4.46,4.46,0,0,0,4.78,4.78,6.92,6.92,0,0,0,6.73-4.61,5.24,5.24,0,0,0,.29-1.6Z"/><path class="cls-3" d="M238.73,63c0-3.25,0-6-.23-8.61h4.43l.18,5.42h.23c1.26-3.71,4.31-6,7.71-6a5.24,5.24,0,0,1,1.43.17v4.73a7.25,7.25,0,0,0-1.72-.17c-3.57,0-6.1,2.67-6.79,6.44a13.42,13.42,0,0,0-.23,2.33v14.7h-5Z"/><path class="cls-3" d="M265,46.43v7.91h7.25v3.82H265V73c0,3.42,1,5.36,3.8,5.36a11.39,11.39,0,0,0,2.93-.34l.23,3.76a12.44,12.44,0,0,1-4.48.68A7.05,7.05,0,0,1,262,80.38c-1.44-1.48-1.95-3.93-1.95-7.18v-15h-4.32V54.34h4.32v-6.6Z"/><path class="cls-4" d="M293.38,81.92l-.4-3.47h-.17a10.44,10.44,0,0,1-8.52,4.1c-5.63,0-8.51-3.93-8.51-7.92,0-6.67,6-10.31,16.74-10.26V63.8c0-2.28-.63-6.38-6.33-6.38a14,14,0,0,0-7.25,2l-1.15-3.3a17.43,17.43,0,0,1,9.15-2.45c8.51,0,10.58,5.75,10.58,11.28V75.31a38.94,38.94,0,0,0,.46,6.61Zm-.74-14.07c-5.53-.12-11.8.85-11.8,6.21a4.46,4.46,0,0,0,4.78,4.78,6.92,6.92,0,0,0,6.73-4.61,5.24,5.24,0,0,0,.29-1.6Z"/></g><g id="Mon"><path class="cls-1" d="M32.52,65.06c-.28-5.36-.61-11.8-.55-16.58H31.8C30.52,53,29,57.76,27.08,63.06l-6.6,18.63H16.82L10.77,63.4C9,58,7.49,53,6.44,48.48H6.33c-.11,4.78-.39,11.22-.73,17l-1,16.46H0l2.61-38.4H8.77l6.38,18.57C16.7,66.82,18,71,18.92,75h.17C20,71.15,21.37,66.94,23,62.09l6.66-18.57h6.16l2.33,38.4H33.46Z"/><path class="cls-3" d="M70.09,67.91c0,10.19-6.88,14.64-13.38,14.64-7.27,0-12.87-5.47-12.87-14.19,0-9.23,5.88-14.64,13.32-14.64C64.87,53.72,70.09,59.47,70.09,67.91Zm-21.31.28c0,6,3.38,10.6,8.16,10.6s8.15-4.5,8.15-10.71c0-4.68-2.27-10.6-8-10.6S48.78,63,48.78,68.19Z"/><path class="cls-3" d="M76.25,61.81c0-2.85-.06-5.19-.23-7.47h4.33l.28,4.56h.11a9.84,9.84,0,0,1,8.88-5.18c3.72,0,9.49,2.28,9.49,11.74V81.92H94.23V66c0-4.44-1.61-8.14-6.22-8.14A7,7,0,0,0,81.46,63a7.4,7.4,0,0,0-.33,2.33V81.92H76.25Z"/></g></g></g></svg>