<svg xmlns="http://www.w3.org/2000/svg" viewBox="0 0 64.09 109.02"><defs><style>.cls-1{fill:#D2D2D2;}</style></defs><title>Fichier 6</title><g id="Calque_2" data-name="Calque 2"><g id="Calque_1-2" data-name="Calque 1"><path class="cls-1" d="M4,13.1c-.33.8-.61,1.42-.84,2.05C.53,22.64.16,30.47,0,38.25c-.17,8.92,2.24,17.44,4.87,25.9a83.73,83.73,0,0,0,24.26,38c7.34,6.65,15.82,8.11,25.11,5.88,5-1.19,7.47-5.31,9.69-9.45a3.63,3.63,0,0,0-.53-2.95C59.65,89.79,55.76,84,51.91,78.21A3.24,3.24,0,0,0,48,76.63c-1.66.5-3.34,1-5,1.63-2.2.86-4.3,2-6.52,2.75-2.92,1-3.84.71-5.59-1.79C25.1,70.86,20.25,62,18.53,51.81c-.79-4.64-1.18-9.36-1.55-14.05-.24-3,.35-3.77,3.18-4.76,1.63-.57,3.36-.89,5-1.36a61.34,61.34,0,0,0,6.28-1.88c2.51-1,2.87-1.85,2.68-4.58-.39-5.6-.78-11.2-1.12-16.8-.38-6.21-.42-6.45-6.54-7.77C24.2.12,21.55-.33,19.41.34A26.4,26.4,0,0,0,4,13.1Z"/><path class="cls-1" d="M4,13.1A26.4,26.4,0,0,1,19.41.34C21.55-.33,24.2.12,26.5.61,32.62,1.93,32.66,2.17,33,8.38c.34,5.6.73,11.2,1.12,16.8.19,2.73-.17,3.58-2.68,4.58a61.34,61.34,0,0,1-6.28,1.88c-1.68.47-3.41.79-5,1.36-2.83,1-3.42,1.74-3.18,4.76.37,4.69.76,9.41,1.55,14.05C20.25,62,25.1,70.86,31,79.22c1.75,2.5,2.67,2.82,5.59,1.79,2.22-.78,4.32-1.89,6.52-2.75,1.61-.63,3.29-1.13,5-1.63a3.24,3.24,0,0,1,3.89,1.58c3.85,5.8,7.74,11.58,11.5,17.44a3.63,3.63,0,0,1,.53,2.95c-2.22,4.14-4.72,8.26-9.69,9.45-9.29,2.23-17.77.77-25.11-5.88a83.73,83.73,0,0,1-24.26-38c-2.63-8.46-5-17-4.87-25.9.15-7.78.52-15.61,3.12-23.1C3.36,14.52,3.64,13.9,4,13.1Z"/></g></g></svg>
